<svg xmlns="http://www.w3.org/2000/svg" viewBox="0 0 181.3 181.19"><defs><style>.cls-1{fill:#f4627a;}</style></defs><g id="Layer_2" data-name="Layer 2"><g id="Layer_1-2" data-name="Layer 1"><path class="cls-1" d="M21.39,90.59c0-10.5-.05-21,.05-31.5,0-2.31-.42-3.8-2.72-5-4.76-2.45-9.3-5.33-13.93-8-.45-.27-.92-.51-1.39-.75C1,44.09-.08,42.32,0,39.39c.22-7.47.18-15,0-22.44C0,14.34.89,13,3.18,11.79c6-3.2,11.9-6.62,17.69-10.19,2.89-1.78,5.29-2,8.3-.11,5.75,3.62,11.72,6.92,17.66,10.23,2.7,1.49,4.14,3.39,3.68,6.62a34.85,34.85,0,0,0,0,5.11,1.53,1.53,0,0,0,1.65,1.75q1.38,0,2.76,0h71.66c4.48,0,4.23.22,4.3-4.29.12-7.67-1.46-6.08,6.16-10.61C142.3,7.18,147.7,4.23,152.94,1a5.68,5.68,0,0,1,6.28-.14c6.82,3.88,13.6,7.85,20.41,11.75a2.7,2.7,0,0,1,1.57,2.5c0,1.84,0,3.68,0,5.51,0,6.3-.14,12.61.07,18.9a5.49,5.49,0,0,1-3.17,5.67c-4,2.18-7.91,4.62-12,6.78-6.22,3.34-6.26,3.28-6.26,10.4v58.27c0,.92.06,1.85,0,2.76a3,3,0,0,0,1.79,3.14c3.22,1.74,6.35,3.65,9.51,5.51,2.7,1.59,5.35,3.29,8.11,4.77a3.49,3.49,0,0,1,1.93,3.52q-.06,12.39,0,24.8A3.76,3.76,0,0,1,179,168.9c-6.51,3.63-12.94,7.41-19.37,11.2a5.78,5.78,0,0,1-6.3.13c-5-2.86-10-5.67-15-8.53-1.82-1-3.57-2.2-5.38-3.25a4,4,0,0,1-2.14-3.89c.08-2.23,0-4.46,0-6.69a1.65,1.65,0,0,0-1.91-1.91c-.92,0-1.83,0-2.75,0H54.89c-.52,0-1,0-1.57,0-2.74.09-2.79.12-2.85,3,0,1.71-.1,3.42,0,5.12a4.57,4.57,0,0,1-2.7,4.75c-4.22,2.36-8.33,4.92-12.51,7.37-2.25,1.33-4.65,2.44-6.79,3.93a5.68,5.68,0,0,1-6.62.12c-6.59-3.77-13.11-7.64-19.72-11.37a3.49,3.49,0,0,1-2.08-3.41c0-4.6,0-9.19,0-13.78,0-3.29.15-6.58,0-9.85-.15-2.64.6-4.43,3-5.73C7,134,10.79,131.63,14.63,129.4a22.61,22.61,0,0,1,3.73-2.15c2.84-1,3.1-3,3.07-5.55C21.34,111.33,21.39,101,21.39,90.59Zm69.2-36.23C70,55.65,55.79,69.47,54.43,90.45c1.12,20.75,15.23,35.17,36.29,36.37,20.65-1.29,34.8-15.12,36.16-36.1C125.76,70,111.66,55.56,90.59,54.36ZM28.42,90.41v12.2c0,6.56.06,13.12,0,19.68A4.59,4.59,0,0,0,31.12,127c2.69,1.35,5.3,2.84,7.9,4.37,1.41.82,2.56,1,3.85-.27,4.41-4.3,8.89-8.51,13.3-12.79.91-.88.54-1.82-.07-2.84a87.8,87.8,0,0,1-5-8.86C47.65,99,47.46,91,48.74,82.8A40.43,40.43,0,0,1,55.23,67c2-3.09,2-3.1-.71-5.83-2.87-2.88-5.74-5.77-8.66-8.6-.93-.9-2.11-1.56-3-2.48-1.28-1.29-2.47-1-3.85-.22a65.94,65.94,0,0,1-6.87,3.8c-2.77,1.22-3.82,3-3.77,6.09C28.53,69.94,28.42,80.18,28.42,90.41Zm124.47.35V77.38c0-6.17,0-12.34,0-18.5,0-1.84-.3-3.38-2-4.33-3.1-1.69-6.21-3.37-9.31-5.08a1.93,1.93,0,0,0-2.5.13c-.59.51-1.39.78-1.94,1.32-3.94,3.86-7.84,7.75-11.75,11.63a2.16,2.16,0,0,0-.16,3.15,50.9,50.9,0,0,1,2.94,4.63c3.9,6.91,5.31,14.32,5.11,22.26-.2,8.34-3.17,15.55-7.55,22.35-1.45,2.24-1.61,2.37.25,4.28,3.41,3.46,6.86,6.87,10.32,10.28.46.46,1,.79,1.52,1.22,1.52,1.36,3,1.76,4.89.47a40.56,40.56,0,0,1,6.5-3.63c2.78-1.22,3.82-3,3.77-6.1C152.78,111.23,152.89,101,152.89,90.76Zm-62.47,58.9h35c.92,0,1.84,0,2.75,0,2-.15,2.54-.61,2.65-2.61.09-1.57.07-3.14,0-4.72-.05-1.86,0-3.64,1.63-5,.92-.75.58-1.61-.17-2.35l-11.14-11.11a2.28,2.28,0,0,0-3.45-.15,46.69,46.69,0,0,1-3.92,2.6c-13.45,8.55-27.42,9.28-41.77,2.55a88.7,88.7,0,0,1-8.36-5.08c-1.9-1.17-2.13-1.22-3.71.32-3.57,3.47-7.06,7-10.6,10.53-1,.93-1.58,1.89-.28,2.94s1.44,2.68,1.41,4.28c0,1.31,0,2.62,0,3.93.06,3.54.32,3.81,3.78,3.88.79,0,1.57,0,2.36,0Zm.22-118.14h-35c-.91,0-1.84-.05-2.75,0-1.76.17-2.25.65-2.36,2.49s-.08,3.41,0,5.12-.06,3.38-1.58,4.62c-.88.72-.73,1.58.05,2.37,3.54,3.51,7,7.09,10.62,10.53,1.88,1.78,2.5,1.69,4.74.25,1.1-.71,2.21-1.4,3.3-2.12C79,47.36,91.19,46.2,104,50.05c5,1.48,9.2,4.37,13.45,7.2,2.1,1.39,2.28,1.4,4-.28q5.22-5.09,10.32-10.28c1.47-1.48,1.36-1.48.08-3.52a7.42,7.42,0,0,1-1-2.85,32.16,32.16,0,0,1,0-3.93c0-4.85,0-4.86-4.77-4.87Zm47.23-3H138c0,3.28-.08,6.56,0,9.83,0,1.42,1.07,1.76,2.09.8,1.43-1.34,2.76-2.8,4.21-4.14a3.65,3.65,0,0,0,1.19-4.19c-1.49-4.85.84-8.59,4.34-11.35s7.53-2.85,11.46-.65a11.06,11.06,0,0,1,5.61,12c-.72,3.89-5.7,8.82-10,8.55a23.19,23.19,0,0,1-4.25-.53,3.34,3.34,0,0,0-3.58.87c-.82.86-1.68,1.67-2.49,2.52s-.79,1.72.2,2.3c2.72,1.58,5.49,3.07,8.23,4.6a2.67,2.67,0,0,0,2.93-.13q7.44-4.37,15-8.54a3.21,3.21,0,0,0,2-3c0-6,0-12.08-.07-18.11a3,3,0,0,0-1.25-2.17c-5.16-3.1-10.41-6-15.6-9.1a3.51,3.51,0,0,0-4,0q-7.08,4.23-14.25,8.28a3.2,3.2,0,0,0-1.91,3.11C137.9,22.5,137.87,25.52,137.87,28.54ZM43.44,152.83c0-2.62,0-5.24,0-7.86a15.36,15.36,0,0,0-.13-2.35c-.2-1.17-1.1-1.54-1.93-.76-1.62,1.53-3.15,3.15-4.75,4.69a3.14,3.14,0,0,0-.86,3.57c1.53,4.49-.44,8.07-3.55,10.85-3.33,3-7.38,3.84-11.65,1.67a10.66,10.66,0,0,1-6.22-8.5c-.47-4.26.81-7.94,4.63-10.49a10.72,10.72,0,0,1,9.35-1.43,3.87,3.87,0,0,0,4.52-1.29c.51-.59,1.13-1.09,1.65-1.68,1.18-1.33,1.16-2-.24-2.8-2.36-1.4-4.81-2.65-7.16-4.06a3.9,3.9,0,0,0-4.4,0q-7.24,4.29-14.57,8.46a3,3,0,0,0-1.76,2.79c0,6,0,12.06.06,18.08A3,3,0,0,0,7.59,164c5.27,3.16,10.62,6.16,15.92,9.26a3.24,3.24,0,0,0,3.65-.08c4.72-2.79,9.44-5.59,14.23-8.26a3.45,3.45,0,0,0,2.07-3.41C43.39,158.6,43.44,155.71,43.44,152.83Zm131.49.24c0-3,0-6,0-9a3,3,0,0,0-1.45-3c-5.11-2.91-10.16-5.91-15.31-8.76a3.72,3.72,0,0,0-2.9-.3c-2.94,1.41-5.77,3.06-8.58,4.73-.39.23-.74,1.36-.54,1.6a18.71,18.71,0,0,0,3.88,3.82c.77.49,2.22.06,3.32-.14,5.62-1,11.65,1.26,13.36,7.91,2.19,8.46-5.71,15.07-12.5,13.68-6.4-1.31-9.94-7-8.7-13.52.16-.84.29-2.06-.17-2.59a80.14,80.14,0,0,0-5.79-5.87c-.17-.16-1.08.07-1.24.35a3.87,3.87,0,0,0-.43,1.87c0,5.9,0,11.79,0,17.69a3.47,3.47,0,0,0,2.1,3.39q7,3.9,13.89,8.07a3.77,3.77,0,0,0,4.34.06q7.59-4.5,15.27-8.83a2.56,2.56,0,0,0,1.49-2.5C174.91,158.83,174.93,156,174.93,153.07ZM6.37,28.16c0,3,0,6,0,9a3.16,3.16,0,0,0,1.85,3.14c5.14,2.84,10.21,5.83,15.36,8.66a3.16,3.16,0,0,0,2.51.17c2.93-1.45,5.77-3.08,8.57-4.75a1.78,1.78,0,0,0,.47-1.62A18.94,18.94,0,0,0,31.2,39c-.78-.48-2.21,0-3.32.18-5.71,1-11.64-1.36-13.31-8A10.29,10.29,0,0,1,18.1,20.25c3.07-2.62,6.52-3.64,10.56-2.18a11.09,11.09,0,0,1,7.26,12.71c-.2,1-.43,2.35.07,2.95a69.57,69.57,0,0,0,5.79,5.86c.16.15,1.07-.12,1.24-.41a4.1,4.1,0,0,0,.4-1.88c0-5.89,0-11.79,0-17.69a3.48,3.48,0,0,0-2.15-3.36q-7-3.91-13.88-8.08a3.79,3.79,0,0,0-4.35,0Q15.49,12.65,7.82,17a2.57,2.57,0,0,0-1.46,2.52C6.4,22.39,6.38,25.28,6.37,28.16Zm22.87.57a4.12,4.12,0,0,0-4.42-4.31c-2.31,0-3.58,1.55-3.51,4.14s1.33,3.75,3.88,3.78S29.24,31.06,29.24,28.73Zm127.09-4.31a4.1,4.1,0,0,0-4.25,4.48c.07,2.27,1.62,3.54,4.21,3.44S160,31,160,28.4,158.66,24.38,156.33,24.42Zm-127.1,128c0-2.32-1.52-3.6-4.11-3.55s-3.93,1.48-3.81,4.24c.09,2.35,1.38,3.68,3.57,3.69A4.11,4.11,0,0,0,29.23,152.38Zm126.86-3.55c-2.57,0-4,1.32-4,3.65a4.13,4.13,0,0,0,4.45,4.28c2.17-.06,3.42-1.42,3.48-3.79C160.07,150.19,158.8,148.85,156.09,148.83Z"/><path class="cls-1" d="M114.26,90.58c0,3.68-.14,7.36,0,11a5.44,5.44,0,0,1-3.06,5.44c-4.56,2.57-9.14,5.1-13.7,7.66-1.37.77-2.74,1.53-4,2.39a4.83,4.83,0,0,1-5.52.11q-8.66-5-17.4-9.87c-2.39-1.32-3.66-3-3.59-5.92q.26-10.81,0-21.63c-.07-2.93,1.19-4.61,3.58-5.93C76.41,70.62,82.2,67.31,88,64a4.73,4.73,0,0,1,5.17-.1c5.89,3.39,11.8,6.76,17.75,10a5.91,5.91,0,0,1,3.4,6C114.12,83.5,114.26,87,114.26,90.58ZM87.49,100.2h0c0-2.23,0-4.45,0-6.67a3.43,3.43,0,0,0-1.69-3.31q-4.93-2.81-10-5.43c-1.15-.6-1.72-.24-1.74,1.09-.05,4.71,0,9.41,0,14.12,0,1.39.89,2,2,2.63,3.21,1.74,6.37,3.57,9.55,5.37,1.35.76,1.79.54,1.85-1.14C87.55,104.64,87.49,102.42,87.49,100.2Zm19.74-7h0c0-2.36,0-4.71,0-7.06,0-1.63-.53-1.95-1.91-1.23-3.25,1.68-6.45,3.44-9.63,5.23a3.18,3.18,0,0,0-1.84,2.82c0,4.84,0,9.68.06,14.51,0,.71.48,1.33,1.29.88,3.65-2,7.27-4.09,10.89-6.15,1.07-.61,1.18-1.65,1.17-2.73Zm-3.9-15c-.47-.6-.69-1.12-1.08-1.33-3.29-1.85-6.61-3.63-9.92-5.44-1.45-.79-2.77-.37-4.08.35l-8.91,4.87a3.42,3.42,0,0,0-.61.47c-.59.55-.66,1.23,0,1.62,3.63,2,7.28,4,11,5.92a2.72,2.72,0,0,0,2.17-.17c3.47-1.78,6.88-3.68,10.31-5.54C102.57,78.68,102.86,78.43,103.33,78.11Z"/></g></g></svg>