<svg xmlns="http://www.w3.org/2000/svg" viewBox="0 0 176.96 176.97"><defs><style>.cls-1{fill:#9916b1;}</style></defs><g id="Layer_2" data-name="Layer 2"><g id="Layer_1-2" data-name="Layer 1"><path class="cls-1" d="M0,66.65Q0,39.39,0,12.14c0-3.49.86-6.56,3.46-9A10.24,10.24,0,0,1,10.89,0C14.46.08,18,0,21.59,0H89.9A24.64,24.64,0,0,1,93,.13a2.55,2.55,0,0,1,2.29,2.25,2.43,2.43,0,0,1-1.61,2.75,10.26,10.26,0,0,1-3.35.53q-23.28,0-46.57,0-15.87,0-31.74,0c-4.46,0-6.28,1.8-6.32,6.19,0,2.88,0,5.75,0,8.63,0,1.16.4,1.7,1.6,1.62.8-.06,1.61,0,2.42,0H112.16c4.58,0,3.92.53,4-4.08,0-2.41.07-4.83,0-7.24-.13-3.4-1.76-5-5.18-5.08-1.73-.06-3.46.08-5.17-.07a4.82,4.82,0,0,1-2.8-1A3.82,3.82,0,0,1,102.13,2,2,2,0,0,1,104.27.1a55.6,55.6,0,0,1,9,.16,10.3,10.3,0,0,1,8.51,10.24c.09,5.86,0,11.73,0,17.59,0,.92,0,1.85,0,2.76-.09,1.33.46,1.87,1.79,1.85,2.42-.05,4.83-.07,7.25,0a29.32,29.32,0,0,1,4.77.48,6.41,6.41,0,0,1,5.35,6.29c.09,4,.14,8.06,0,12.07-.17,4.28-2.78,6.65-7.11,6.71-3.34.05-6.67,0-10,0-1.82,0-2,.16-2,2,0,5.29,0,10.58-.06,15.87a2.42,2.42,0,0,0,1.81,2.53c1.9.81,3.78,1.64,5.65,2.51a8.69,8.69,0,0,1,2.05,1.24,2.52,2.52,0,0,1,.81,3.08,2.61,2.61,0,0,1-3.08,1.6,9.39,9.39,0,0,1-1.93-.72A43.17,43.17,0,0,1,121.74,84c-1.94-1.19-3.63-.83-5.49,0-6,2.79-12.11,5.51-18.17,8.27q-3.28,1.48-6.56,3a5.07,5.07,0,0,0-.81.59,4.45,4.45,0,0,0,.93.82c8.67,3.94,17.35,7.84,26,11.81a3.12,3.12,0,0,0,2.91.06c8.76-4,17.55-8,26.32-11.94a3.21,3.21,0,0,0,.72-.62,3.16,3.16,0,0,0-.68-.64c-1.86-.88-3.75-1.72-5.62-2.58a15.25,15.25,0,0,1-1.86-.91,2.92,2.92,0,0,1-1.28-3.56A2.61,2.61,0,0,1,141.58,87c2.16.77,4.25,1.71,6.35,2.64,2.51,1.11,5,2.35,7.52,3.39a3.44,3.44,0,0,1,2.39,3c.12,1.13.29,2.27.3,3.41,0,5.06,0,10.12,0,15.18,0,2.73,0,2.74,2.85,2.76s5.77.2,8.63,0a7,7,0,0,1,7.28,7.36,95.3,95.3,0,0,0,0,10.69,7.18,7.18,0,0,1-7.8,7.63c-3-.11-6,0-9,0-1.88,0-1.94.08-2,1.95-.06,4.25,0,8.51,0,12.76a25.38,25.38,0,0,1-.05,2.76,7.1,7.1,0,0,1-7.41,6.66q-4,.08-7.94,0c-1.31,0-1.93.44-1.82,1.79a8.23,8.23,0,0,1,0,1.72c-.47,3.92-2.92,6.19-6.89,6.25s-7.82,0-11.73,0c-5.87,0-11.73,0-17.6,0-4.73,0-7.22-2.43-7.28-7.2,0-2.9-.48-2.55-2.78-2.55s-4.6,0-6.9,0c-4.62-.08-7.52-2.94-7.57-7.54,0-4.83,0-9.66,0-14.49,0-2-.07-2.1-2.13-2.13-2.88,0-5.75,0-8.63,0-5.33,0-7.85-2.41-7.93-7.68-.05-2.84-.23-2.51-2.77-2.51H35.92a21.54,21.54,0,0,1-2.41,0c-1.64-.17-2.34-.87-2.46-2.33A2.38,2.38,0,0,1,33,127.61a12,12,0,0,1,3.38-.41c7.13,0,14.26,0,21.39,0,.8,0,1.61,0,2.41,0a1.11,1.11,0,0,0,1.27-1.24c0-.58,0-1.15,0-1.73.2-4.26,2.7-6.7,7-6.79,2.75,0,5.52,0,8.28,0,3.74,0,3.4.32,3.41-3.26,0-5.4.1-10.81-.08-16.21-.09-2.72,1-4.23,3.39-5.29,9.86-4.34,19.67-8.81,29.52-13.18,3.1-1.38,3.14-1.32,3.13-4.77,0-4.72,0-9.43,0-14.15,0-2.2-.06-2.23-2.35-2.25-3.1,0-6.22-.19-9.31,0a7,7,0,0,1-7.11-7.18c.17-3.67,0-7.36.06-11,.07-4,2.11-6.52,6.08-7,3.41-.38,6.87-.31,10.3-.51.74,0,2-.28,2.09-.62a13.63,13.63,0,0,0,0-3.72c0-.18-.54-.42-.85-.45-.8-.07-1.6-.07-2.41-.07H9.11c-3.65,0-3.42-.32-3.42,3.27V119.7c0,.92-.05,1.85,0,2.76a5,5,0,0,0,5,4.68c2.87.09,5.75,0,8.62,0a10.24,10.24,0,0,1,3,.44,2.45,2.45,0,0,1,1.9,2.86,3,3,0,0,1-2.65,2.32,7.09,7.09,0,0,1-1,0c-3.22,0-6.45-.08-9.66,0-5.88.21-11-5.49-10.95-11C.13,109.2,0,96.55,0,83.9Zm85.78,85.14c0,2.41,0,4.83,0,7.24s.19,2.46,2.62,2.51c2,0,3.91,0,5.86,0,2.94,0,3,0,3-2.9A7.17,7.17,0,0,1,100.1,153c1.7-1.43,3.8-1.52,5.85-1.58,3.33-.09,6.67,0,10,0l16.21,0c2.09,0,4.15.18,5.89,1.48a7.4,7.4,0,0,1,2.9,6.66c-.07,1.4.31,2.11,1.89,2.05,2.41-.1,4.83,0,7.24,0,2.16,0,2.39-.25,2.41-2.39,0-4.71,0-9.43,0-14.14,0-1.9-.06-1.95-1.9-2-3.22,0-6.44.06-9.66,0-4.68-.14-7.48-2.92-7.59-7.57-.09-3.56-.12-7.13,0-10.69.2-4.38,2.54-7.4,7.7-7.34,3.33,0,6.67,0,10,0,1,0,1.43-.41,1.42-1.43q0-7.24,0-14.49c0-1.25-.67-.84-1.3-.56-2.61,1.17-5.23,2.33-7.84,3.51-6.58,3-13.14,6-19.74,8.94a2.63,2.63,0,0,0-1.86,2.86c.1,2.29-.08,4.6,0,6.9.15,4.69-4.86,9.85-9.78,9.69-1.61-.06-3.22,0-4.83,0-2,0-2.11.07-2.12,2.12,0,5.46-3.7,8.33-8.55,8.1-2.41-.11-4.82-.05-7.24,0-3.67,0-3.41-.37-3.41,3.25C85.81,148.11,85.82,150,85.82,151.79Zm0-43.19c0,2.3,0,4.59,0,6.88,0,1.85.06,1.89,1.94,1.9,3.44,0,6.89,0,10.33.05a6.61,6.61,0,0,1,6.44,5.17,9.23,9.23,0,0,1,.4,2.69c0,1.58.74,2,2.11,1.9,1.61-.07,3.22,0,4.82-.08,2.56-.16,4-1.55,4.18-4.07.13-2.17-.06-4.37.12-6.53.17-2-.7-2.89-2.36-3.62-6.18-2.73-12.3-5.57-18.46-8.34-2.71-1.22-5.45-2.36-8.16-3.59-.91-.42-1.42-.56-1.39.76C85.86,104,85.82,106.31,85.82,108.6Zm-2.88,14.46c-4.48,0-9,0-13.45,0-2.32,0-2.37.06-2.39,2.24q-.07,4.83,0,9.65c0,2.34.08,2.38,2.62,2.39,5.05,0,10.11,0,15.16,0,4,0,8,0,12.06,0,2.09,0,2.35-.3,2.39-2.43q.08-4.67,0-9.31c0-2.35-.21-2.52-2.6-2.55C92.13,123,87.53,123.06,82.94,123.06Zm36.14,48.26v0c4.71,0,9.42,0,14.13,0,1.94,0,2-.1,2-1.88.05-3.33.06-6.66,0-10,0-2.11-.28-2.39-2.41-2.4q-13.79,0-27.57,0c-1.93,0-2.2.31-2.23,2.22-.06,3.33,0,6.66,0,10,0,2,.07,2,2.22,2.06C109.89,171.34,114.48,171.32,119.08,171.32Zm36.09-48.26c-4.59,0-9.18,0-13.77,0-2.18,0-2.37.21-2.4,2.37-.06,3.1,0,6.2,0,9.3,0,2.36.22,2.6,2.53,2.61q13.6,0,27.2,0c2.31,0,2.46-.2,2.49-2.63q.06-4.65,0-9.3c0-2.29-.06-2.34-2.27-2.36C164.36,123,159.77,123.06,155.17,123.06Zm-36-70.43c4.7,0,9.4,0,14.1,0,1.89,0,2-.11,2-2,0-3.21,0-6.42,0-9.63,0-2.22-.07-2.28-2.36-2.29-5.85,0-11.69,0-17.54,0-3.44,0-6.88,0-10.32.05-1.88,0-1.94.1-2,2,0,3.32-.06,6.65,0,10,0,1.81.11,1.9,2,1.91C109.78,52.66,114.48,52.63,119.18,52.63Z"/><path class="cls-1" d="M65.3,71.3h-20a21.53,21.53,0,0,1-2.41,0A2.88,2.88,0,0,1,40,68.47c0-1.54,1.05-2.62,2.85-2.82a16.45,16.45,0,0,1,1.72,0h42a14.28,14.28,0,0,1,2.07,0,2.78,2.78,0,0,1,0,5.54,14.87,14.87,0,0,1-2.41.07h-21Z"/><path class="cls-1" d="M64,11.08H83.69a14.9,14.9,0,0,1,2.41.08,2.82,2.82,0,0,1,2.4,2.54,2.39,2.39,0,0,1-1.84,2.58,9.51,9.51,0,0,1-2.69.43q-20,0-40,0a6.41,6.41,0,0,1-2.9-.75c-1.17-.62-1.25-1.85-1-3a2.2,2.2,0,0,1,2.23-1.79c.8,0,1.61,0,2.42,0H64Z"/><path class="cls-1" d="M57.76,96.23H44.33c-.69,0-1.38,0-2.06,0A2.25,2.25,0,0,1,40.05,94c-.13-1.25.2-2.37,1.47-2.79a10.89,10.89,0,0,1,3.34-.57q12.92-.08,25.83,0a11.07,11.07,0,0,1,3,.48,2.29,2.29,0,0,1,1.7,2.65,2.63,2.63,0,0,1-2.16,2.38,10.65,10.65,0,0,1-2.4.11Z"/><path class="cls-1" d="M47,53.2H58.71a19.29,19.29,0,0,1,2.41.07,2.57,2.57,0,0,1,2.21,2.33,2.32,2.32,0,0,1-1.51,2.75,7.8,7.8,0,0,1-2.66.51q-12.4,0-24.81,0c-2.61,0-3.93-1-4-2.78s1.29-2.85,3.86-2.87C38.49,53.17,42.75,53.2,47,53.2Z"/><path class="cls-1" d="M67.41,83.82c-3.79,0-7.57,0-11.36,0a5.53,5.53,0,0,1-2-.23,2.64,2.64,0,0,1-.44-4.53,6.74,6.74,0,0,1,3.24-.84c7.24-.07,14.47,0,21.7,0A4.37,4.37,0,0,1,82,79.36a2.49,2.49,0,0,1-1.13,4.31,9.57,9.57,0,0,1-2.4.15C74.76,83.83,71.08,83.82,67.41,83.82Z"/><path class="cls-1" d="M65.34,46.51h-9a14.2,14.2,0,0,1-2.06-.08,2.6,2.6,0,0,1-2.17-2.37,2.32,2.32,0,0,1,1.59-2.71,8.31,8.31,0,0,1,2.66-.46q9.29-.08,18.59,0a7.1,7.1,0,0,1,2.34.34,2.7,2.7,0,0,1,1.92,2.88,2.74,2.74,0,0,1-2.56,2.38c-1.49.12-3,0-4.47.06Z"/><path class="cls-1" d="M53.16,108.65H47.64a9.86,9.86,0,0,1-1.72-.07,2.82,2.82,0,0,1-2.4-2.55,2.37,2.37,0,0,1,1.81-2.59,8.59,8.59,0,0,1,2.35-.41c3.44,0,6.89,0,10.34,0,.23,0,.47,0,.69,0,2.12.22,3.58,1.52,3.51,3.1-.07,1.41-1.48,2.46-3.54,2.52C56.84,108.69,55,108.65,53.16,108.65Z"/><path class="cls-1" d="M39.07,83.82c-2,0-3.89.06-5.84,0s-2.69-.75-2.84-2.27.46-2.49,2.14-3a6.56,6.56,0,0,1,2-.33c3.09,0,6.18,0,9.26,0a8,8,0,0,1,2.64.59,2.41,2.41,0,0,1,1.4,2.83,2.18,2.18,0,0,1-2.25,2.14c-2.18.06-4.35,0-6.52,0Z"/><path class="cls-1" d="M39.16,40.78c1.84,0,3.68-.07,5.51,0,2,.09,3.21,1.2,3.19,2.84s-1.19,2.73-3.26,2.78c-3.67.08-7.35.09-11,0-2-.05-3.21-1.22-3.19-2.85s1.19-2.67,3.27-2.76c1.83-.07,3.67,0,5.5,0Z"/><path class="cls-1" d="M73.75,53.25a28.55,28.55,0,0,1,3.07,0,2.87,2.87,0,0,1,2.47,2.47,2.55,2.55,0,0,1-2,2.78,45.18,45.18,0,0,1-7.45.16,2.69,2.69,0,0,1-2.12-2.74A3,3,0,0,1,70,53.3a2.5,2.5,0,0,1,.67-.07h3.07Z"/><path class="cls-1" d="M99,11.08c.92,0,1.84-.06,2.75,0,1.7.12,2.47.76,2.67,2.11s-.44,3.07-1.89,3.21a31.48,31.48,0,0,1-7.45-.16,2.22,2.22,0,0,1-1.83-2.85,2.73,2.73,0,0,1,2.65-2.28c1-.07,2.07,0,3.1,0Z"/><path class="cls-1" d="M35.42,108.61c-.91,0-1.83,0-2.74,0a2.25,2.25,0,0,1-2.27-2.13,2.42,2.42,0,0,1,1.39-2.85,10.06,10.06,0,0,1,7.34-.07,2.46,2.46,0,0,1,1.61,2.74,2.53,2.53,0,0,1-2.25,2.27,24.32,24.32,0,0,1-3.08,0Z"/><path class="cls-1" d="M18.94,71.3a19.06,19.06,0,0,1-2.39,0A2.84,2.84,0,0,1,14,68.91a2.68,2.68,0,0,1,1.67-2.73,8.74,8.74,0,0,1,7,.14A3.24,3.24,0,0,1,24,68.76a2.44,2.44,0,0,1-2,2.45,25.91,25.91,0,0,1-3.06.17Z"/><path class="cls-1" d="M19.18,46.48a21.49,21.49,0,0,1-2.41,0,2.85,2.85,0,0,1-2.7-2.64A2.36,2.36,0,0,1,16,41.27a29.86,29.86,0,0,1,6.41.07c1.24.16,1.78,1.4,1.71,2.65a2.77,2.77,0,0,1-2.49,2.46,19.36,19.36,0,0,1-2.41,0Z"/><path class="cls-1" d="M18.94,83.72a19.36,19.36,0,0,1-2.41,0,2.87,2.87,0,0,1-2.45-2.53c0-1.24.56-2.47,1.79-2.61a29.23,29.23,0,0,1,6.41,0c1.23.13,1.82,1.36,1.83,2.6a2.85,2.85,0,0,1-2.41,2.56,21.17,21.17,0,0,1-2.76,0Z"/><path class="cls-1" d="M18.81,96.13a15.87,15.87,0,0,1-2.39,0,2.91,2.91,0,0,1-2.34-2.58c0-1.22.58-2.43,1.81-2.57a30.63,30.63,0,0,1,6.35-.06,2.37,2.37,0,0,1,1.89,2.53,3,3,0,0,1-2.6,2.72,5.07,5.07,0,0,1-.68,0h-2Z"/><path class="cls-1" d="M19.11,108.56c-.81,0-1.62,0-2.42,0a2.75,2.75,0,0,1-2.56-2.4A2.41,2.41,0,0,1,16,103.3a24,24,0,0,1,6.11,0,2.52,2.52,0,0,1,1.95,2.84,2.87,2.87,0,0,1-2.56,2.41A19.38,19.38,0,0,1,19.11,108.56Z"/><path class="cls-1" d="M18.92,58.88a18.89,18.89,0,0,1-2.38,0A2.82,2.82,0,0,1,14.1,56.4a2.48,2.48,0,0,1,1.68-2.67,10,10,0,0,1,6.65,0,2.48,2.48,0,0,1,1.66,2.68,2.84,2.84,0,0,1-2.44,2.47,3.83,3.83,0,0,1-.68,0h-2Z"/><path class="cls-1" d="M86.12,46.43a11.09,11.09,0,0,1-1.9-.39,2.59,2.59,0,0,1-1.79-2.62,2.83,2.83,0,0,1,2.36-2.55,18.38,18.38,0,0,1,3.4,0c1.92.13,3.15,1.37,3.06,2.94a3,3,0,0,1-3,2.66C87.79,46.47,87.33,46.43,86.12,46.43Z"/><path class="cls-1" d="M70.77,108.64c-.45,0-.91,0-1.36,0A2.3,2.3,0,0,1,67,106.73a2.71,2.71,0,0,1,1.65-3.35,6.8,6.8,0,0,1,5.29.16A2.37,2.37,0,0,1,75.43,106a2.6,2.6,0,0,1-2,2.51,12.53,12.53,0,0,1-2.69.24Z"/><path class="cls-1" d="M87.37,53.23a8.68,8.68,0,0,1,1,0A3,3,0,0,1,91.27,56c0,1.76-1.46,2.87-3.83,2.89s-3.85-1-3.88-2.83a2.87,2.87,0,0,1,2.79-2.83A8.68,8.68,0,0,1,87.37,53.23Z"/><path class="cls-1" d="M17.41,13.84a2.94,2.94,0,0,1-2.59,2.75,3.26,3.26,0,0,1-3-2.81,2.87,2.87,0,0,1,2.62-2.67A2.88,2.88,0,0,1,17.41,13.84Z"/><path class="cls-1" d="M26,13.77a3.24,3.24,0,0,1-2.9,2.89,3,3,0,0,1-2.43-3.21,2.37,2.37,0,0,1,2.77-2.33A2.65,2.65,0,0,1,26,13.77Z"/><path class="cls-1" d="M34.69,13.94A2.91,2.91,0,0,1,32,16.6a3.27,3.27,0,0,1-2.88-2.9,2.92,2.92,0,0,1,2.73-2.58A2.83,2.83,0,0,1,34.69,13.94Z"/><path class="cls-1" d="M91.26,80.93a2.84,2.84,0,0,1-2.8,2.85,3,3,0,0,1-2.77-2.54,3.25,3.25,0,0,1,2.84-2.91A2.92,2.92,0,0,1,91.26,80.93Z"/><path class="cls-1" d="M35.85,93.54a2.86,2.86,0,0,1-3,2.66,2.38,2.38,0,0,1-2.47-2.66,2.87,2.87,0,0,1,2.86-2.8A3.44,3.44,0,0,1,35.85,93.54Z"/><path class="cls-1" d="M33.11,71.21a2.89,2.89,0,0,1-2.73-2.56,2.73,2.73,0,1,1,5.45-.46A3.18,3.18,0,0,1,33.11,71.21Z"/><path class="cls-1" d="M87.18,132.78c-1.6,0-3.2.05-4.79,0a2.26,2.26,0,0,1-2.32-2.08,2.48,2.48,0,0,1,1.64-3,6.56,6.56,0,0,1,2.3-.51c2.28-.05,4.56,0,6.84,0a5.57,5.57,0,0,1,1.66.29c1.42.48,2.45,1.91,2.13,3.07A2.73,2.73,0,0,1,92,132.79c-1.59,0-3.19,0-4.78,0Z"/><path class="cls-1" d="M76.87,130.14a2.39,2.39,0,0,1-2.47,2.66,2.9,2.9,0,0,1-3-2.67A3.42,3.42,0,0,1,74,127.34,2.85,2.85,0,0,1,76.87,130.14Z"/><path class="cls-1" d="M123.38,161.56c1.37,0,2.74-.06,4.11,0,2,.11,3.19,1.2,3.16,2.83a2.78,2.78,0,0,1-2.9,2.75c-3,.12-5.93.12-8.89,0a2.81,2.81,0,0,1-2.84-2.82,2.87,2.87,0,0,1,2.92-2.73c1.47-.1,3,0,4.44,0Z"/><path class="cls-1" d="M112.94,164.42c-.16,1.51-1.73,2.91-3,2.69a3,3,0,0,1-2.25-3.36,2.43,2.43,0,0,1,2.92-2.18A2.65,2.65,0,0,1,112.94,164.42Z"/><path class="cls-1" d="M159.59,132.79c-1.6,0-3.22.08-4.82,0a2.91,2.91,0,0,1-2.74-2.2,3,3,0,0,1,2.18-3.09,7.72,7.72,0,0,1,2-.29c2.07,0,4.14,0,6.21,0a7.8,7.8,0,0,1,2.34.43,2.45,2.45,0,0,1,1.82,2.92c-.15,1.46-.82,2.12-2.53,2.23-1.49.1-3,0-4.48,0Z"/><path class="cls-1" d="M146.43,127.33a3.19,3.19,0,0,1,2.72,3,2.94,2.94,0,0,1-2.87,2.43,2.87,2.87,0,0,1-2.68-3A2.94,2.94,0,0,1,146.43,127.33Z"/><path class="cls-1" d="M123.28,48.51c-1.37,0-2.75.07-4.11,0-2-.13-3.2-1.31-3.15-2.89s1.3-2.66,3.31-2.72c2.62-.07,5.25-.07,7.87,0,2.26,0,3.52,1.17,3.47,2.89s-1.32,2.68-3.63,2.76c-1.25,0-2.51,0-3.76,0Z"/><path class="cls-1" d="M113,45.65a3,3,0,0,1-2.85,2.81,2.9,2.9,0,0,1-2.45-2.82,2.79,2.79,0,0,1,2.86-2.73A2.62,2.62,0,0,1,113,45.65Z"/></g></g></svg>