<svg xmlns="http://www.w3.org/2000/svg" viewBox="0 0 172 172"><defs><style>.cls-1{fill:#cb0680;}</style></defs><g id="Layer_2" data-name="Layer 2"><g id="Layer_1-2" data-name="Layer 1"><path class="cls-1" d="M157.67,0H14.33A14.35,14.35,0,0,0,0,14.33v103.2a14.35,14.35,0,0,0,14.33,14.34H65L58.07,154.8H45.87A2.86,2.86,0,0,0,43,157.67,14.35,14.35,0,0,0,57.33,172h57.34A14.35,14.35,0,0,0,129,157.67a2.86,2.86,0,0,0-2.87-2.87h-12.2l-6.88-22.93h50.62A14.35,14.35,0,0,0,172,117.53V14.33A14.35,14.35,0,0,0,157.67,0ZM14.33,5.73H157.67a8.61,8.61,0,0,1,8.6,8.6V103.2H5.73V68.8h43v2.87a8.61,8.61,0,0,0,8.6,8.6H112a20.05,20.05,0,1,0,22.7-22.71v-26a8.61,8.61,0,0,0-8.6-8.6H75.21L52.88,11.77a2.81,2.81,0,0,0-2.07-.19L31.13,17.2H5.73V14.33A8.61,8.61,0,0,1,14.33,5.73ZM112,74.53H57.33a2.86,2.86,0,0,1-2.86-2.86V68.8h10a10,10,0,0,0,9-14.33H129v3.09A20.08,20.08,0,0,0,112,74.53ZM54.47,43H129v5.73H54.47Zm77.4,20.07A14.33,14.33,0,1,1,117.53,77.4,14.35,14.35,0,0,1,131.87,63.07ZM129,37.27H54.47V31.53a2.86,2.86,0,0,1,2.86-2.86h68.8A2.86,2.86,0,0,1,129,31.53ZM57.33,22.93a8.61,8.61,0,0,0-8.6,8.6v17.2H43v5.74H64.5a4.3,4.3,0,0,1,0,8.6H5.73V22.93h25.8a2.6,2.6,0,0,0,.79-.11l19-5.43,11.08,5.54Zm57.34,143.34H57.33a8.63,8.63,0,0,1-8.11-5.74h73.56a8.63,8.63,0,0,1-8.11,5.74ZM108,154.8H64.05l6.88-22.93h30.14Zm49.72-28.67H14.33a8.61,8.61,0,0,1-8.6-8.6v-8.6H166.27v8.6A8.61,8.61,0,0,1,157.67,126.13Z"/><path class="cls-1" d="M129,86a2.87,2.87,0,0,0,2-.84l11.46-11.47-4.05-4L129,79.08l-3.71-3.71-4.05,4.06L127,85.16A2.87,2.87,0,0,0,129,86Z"/><path class="cls-1" d="M77.4,60.2h5.73v5.73H77.4Z"/><path class="cls-1" d="M88.87,60.2H94.6v5.73H88.87Z"/><path class="cls-1" d="M100.33,60.2h5.74v5.73h-5.74Z"/></g></g></svg>