<svg xmlns="http://www.w3.org/2000/svg" viewBox="0 0 172.1 171.92"><defs><style>.cls-1{fill:#290390;}</style></defs><g id="Layer_2" data-name="Layer 2"><g id="Layer_1-2" data-name="Layer 1"><path class="cls-1" d="M.21,141.57h40V0H172.1V3.47q0,70.94,0,141.86c0,15.85-10.72,26.57-26.57,26.58H26.86C9.42,171.91-1.68,159.48.21,141.57ZM50.62,10V141.73h81.13c0,1.56,0,2.88,0,4.2.08,9.06,6.61,15.9,15.17,15.88S162,155,162,145.84q0-66.24,0-132.48c0-1.09-.11-2.17-.17-3.35h-20.3v3.77c0,9.3-.52,18.64.15,27.9.57,7.8-1.13,14-7.71,18.53a7.05,7.05,0,0,0-1.19,1.19c-2.59,2.84-1.72,9.52,1.5,11.54a15.09,15.09,0,0,1-8.36,28A15.06,15.06,0,0,1,118.41,73c1.51-.93,3.37-1.47,2.89-3.87-1.61-8,1.66-14,8-18.65a.69.69,0,0,0,.24-.24c.61-1.46,1.73-2.93,1.74-4.41.15-10.75.08-21.51,0-32.27,0-1.18-.13-2.35-.2-3.46H111.24c0,2.49.15,4.73,0,7-.21,2.51.6,3.93,2.94,5.25a14.72,14.72,0,0,1,6.37,17.5,15,15,0,0,1-14.9,10.37,15.14,15.14,0,0,1-7.32-28c1-.67,2.57-1.6,2.67-2.53a88.45,88.45,0,0,0,.13-9.49H81c0,11.35.13,22.44-.08,33.52-.06,3.42.6,6.16,3.44,8.15,5.67,4,8,9.32,6.74,16.16-.42,2.35.44,3.79,2.68,5a14.75,14.75,0,0,1,6.88,16.76,15.16,15.16,0,0,1-14,11.16A14.94,14.94,0,0,1,71.81,91C69.56,84.78,71.3,77.28,77,74c4-2.31,4.38-5.17,3.9-8.77A9.15,9.15,0,0,0,79,60.86a40.82,40.82,0,0,0-5.42-5.5,7.57,7.57,0,0,1-2.74-6.43c.14-11.77,0-23.54,0-35.3,0-1.19-.13-2.37-.21-3.66Zm-39.28,142c1.88,6.23,7.38,9.88,14.82,9.89q48.59,0,97.17,0c.92,0,1.85-.13,2.71-.2-1.48-3.4-2.85-6.54-4.23-9.68ZM91,86.11a5,5,0,0,0-4.6-5.23,4.9,4.9,0,0,0-5.31,4.83,5,5,0,0,0,4.77,5.07A4.9,4.9,0,0,0,91,86.11Zm40.35-.21a5,5,0,1,0-4.94,4.88A4.89,4.89,0,0,0,131.31,85.9ZM111.14,35.22a5.07,5.07,0,0,0-5-5.18,5,5,0,0,0-5,4.84,5.08,5.08,0,0,0,5,5.18A5,5,0,0,0,111.14,35.22Z"/><path class="cls-1" d="M91.14,126.15H81.48v-9.8h9.66Z"/><path class="cls-1" d="M111.4,116.41V126h-9.7v-9.63Z"/><path class="cls-1" d="M121.93,116.34h9.59v9.77h-9.59Z"/></g></g></svg>