<svg xmlns="http://www.w3.org/2000/svg" viewBox="0 0 162.74 190.54"><defs><style>.cls-1{fill:#2eb01c;}</style></defs><g id="Layer_2" data-name="Layer 2"><g id="Layer_1-2" data-name="Layer 1"><circle class="cls-1" cx="33.55" cy="27.45" r="2.79"/><circle class="cls-1" cx="46.29" cy="27.45" r="2.79"/><circle class="cls-1" cx="59.04" cy="27.45" r="2.79"/><path class="cls-1" d="M74.76,175.84a2.79,2.79,0,0,0,0-5.58H62.48a2.79,2.79,0,0,0,0,5.58Z"/><path class="cls-1" d="M134.45,103.71a2.79,2.79,0,0,0-2.79,2.79v69.76A8.7,8.7,0,0,1,123,185H14.28a8.71,8.71,0,0,1-8.7-8.7v-162a8.71,8.71,0,0,1,8.7-8.7H123a8.7,8.7,0,0,1,8.69,8.7v20.8a2.79,2.79,0,1,0,5.58,0V14.28A14.29,14.29,0,0,0,123,0H14.28A14.29,14.29,0,0,0,0,14.28v162a14.29,14.29,0,0,0,14.28,14.28H123a14.29,14.29,0,0,0,14.27-14.28V106.5a2.78,2.78,0,0,0-2.79-2.79Z"/><path class="cls-1" d="M152.42,45.42H122v-22a8.13,8.13,0,0,0-8.12-8.13H23.39a8.14,8.14,0,0,0-8.13,8.13V154.51a8.14,8.14,0,0,0,8.13,8.13h90.47a8.13,8.13,0,0,0,8.12-8.13V96.24h30.44a10.33,10.33,0,0,0,10.32-10.31V55.74a10.33,10.33,0,0,0-10.32-10.32Zm-131.58-22a2.55,2.55,0,0,1,2.55-2.55h90.47a2.55,2.55,0,0,1,2.54,2.55V34.05H20.84Zm93,133.67H23.39A2.55,2.55,0,0,1,21.32,156a32.06,32.06,0,0,1,25.51-26l4.75-.91a24.17,24.17,0,0,0,17,7h0a24.25,24.25,0,0,0,17-7l4.75.91a32.07,32.07,0,0,1,25.5,26A2.55,2.55,0,0,1,113.86,157.06ZM78.87,69h-.14a13.78,13.78,0,0,0-4.22.66,20.29,20.29,0,0,1-11.83,0A14.07,14.07,0,0,0,58.4,69h-.08a9.73,9.73,0,0,0-9.63,9.79v7.15l-3.47-1.2a1.1,1.1,0,0,1-.72-1V72.44A14.21,14.21,0,0,1,58.7,58.25H79.77a3.84,3.84,0,0,1,3.84,3.83,5,5,0,0,0,5,5h.23a3.84,3.84,0,0,1,3.83,3.83V83.66a1.11,1.11,0,0,1-.73,1l-3.46,1.2V78.75A9.73,9.73,0,0,0,78.87,69ZM47.58,91.41a5,5,0,0,0,6.7-4.76V78.73a4.14,4.14,0,0,1,4.08-4.2h.11a8,8,0,0,1,2.52.4,26,26,0,0,0,15.24,0,8.49,8.49,0,0,1,2.55-.4h.08a4.15,4.15,0,0,1,4.08,4.21v7.91a5,5,0,0,0,6.69,4.76l3.31-1.15v0l0,4.41a1.17,1.17,0,0,1-1.14,1.19H90.32a2.79,2.79,0,0,0-2.78,2.74,17.77,17.77,0,0,1-5.84,13.08,19.25,19.25,0,0,1-26.05.11,17.74,17.74,0,0,1-5.94-13,2.8,2.8,0,0,0-2.79-2.72H45.41a1.16,1.16,0,0,1-1.13-1.18c0-4.65,0-4.41,0-4.64Zm32.36,35.31a18.66,18.66,0,0,1-11.32,3.84h0a18.57,18.57,0,0,1-11.32-3.86,9,9,0,0,0,3-5.75,25.29,25.29,0,0,0,8.41,1.48h.06A25.25,25.25,0,0,0,76.92,121,9,9,0,0,0,79.94,126.72Zm36.46,15.07a37.67,37.67,0,0,0-24.93-17.24l-6.25-1.2a3.5,3.5,0,0,1-2.75-3.12v-2.08a28.83,28.83,0,0,0,2.92-2.25,23.09,23.09,0,0,0,7.54-14.53,6.76,6.76,0,0,0,5.59-6.71l0-4.4a6.69,6.69,0,0,0-1-3.5,6.68,6.68,0,0,0,.77-3.1V70.94a9.42,9.42,0,0,0-9.1-9.41,9.41,9.41,0,0,0-9.39-8.86H58.7A19.79,19.79,0,0,0,38.93,72.44V83.66a6.65,6.65,0,0,0,.81,3.18,6.76,6.76,0,0,0-1.07,3.67l0,4.41a6.74,6.74,0,0,0,2,4.76,6.58,6.58,0,0,0,3.67,1.89A23.11,23.11,0,0,0,52,116.05a30.78,30.78,0,0,0,2.73,2.08v2.1a3.48,3.48,0,0,1-2.7,3.12h0l-6.26,1.2a37.7,37.7,0,0,0-24.93,17.24V39.63H116.4v5.79a10.33,10.33,0,0,0-10.23,10.32V85.93A10.32,10.32,0,0,0,116.4,96.24Zm40.75-55.86a4.73,4.73,0,0,1-4.73,4.73H116.49a4.74,4.74,0,0,1-4.74-4.73V55.74A4.74,4.74,0,0,1,116.49,51h35.93a4.74,4.74,0,0,1,4.73,4.74Z"/><path class="cls-1" d="M144.57,60.84,140,63a4.65,4.65,0,0,0-4.59-3.92H121.8a4.66,4.66,0,0,0-4.65,4.66V77.94a4.66,4.66,0,0,0,4.65,4.66h13.62A4.65,4.65,0,0,0,140,78.68l4.56,2.15a5,5,0,0,0,7.19-4.56V65.4A5,5,0,0,0,144.57,60.84ZM134.49,77H122.73V64.64h11.76Zm11.69-1.61-6.1-2.87V69.12l6.1-2.87Z"/></g></g></svg>