<svg xmlns="http://www.w3.org/2000/svg" viewBox="0 0 180 180"><defs><style>.cls-1{fill:#1fa198;}</style></defs><g id="Layer_2" data-name="Layer 2"><g id="Layer_1-2" data-name="Layer 1"><path class="cls-1" d="M147,90c0-2.17-.09-3.8,0-5.41.21-3.28,2.45-4.59,5-2.7,7.86,5.73,15.63,11.61,23.38,17.5,2.18,1.66,2.14,3.65,0,5.29-7.76,5.88-15.54,11.75-23.41,17.48-2.44,1.77-4.7.57-5-2.44-.16-1.72,0-3.47,0-5.71-3.39,0-6.6,0-9.79,0-11.77.2-20.54-4.51-26.48-15a23.69,23.69,0,0,0-41.15-.36C63.28,109.47,54.35,114.26,42.13,114c-11.37-.2-22.74,0-34.1-.05-4.37,0-5-.64-5-5,0-4.75.14-9.5,0-14.24-.13-3.61,1.41-4.84,4.92-4.8,10.74.13,21.48,0,32.22.08a10.63,10.63,0,0,0,9.68-5.16c19.76-29.26,60.7-29.26,80.39,0,2.41,3.59,5.41,5.33,9.67,5.13C142.1,89.91,144.33,90,147,90Zm6.29.28c-.59,5.48-.89,5.75-5.78,5.74-2,0-4-.13-6,0-7.61.58-12.88-2.6-17.17-9-16-23.81-51.85-24.18-68.2-.54-4.82,7-10.48,9.94-18.78,9.57C28,95.69,18.7,96,9.31,96v11.88c12.71,0,25.19.34,37.63-.13,7.1-.26,12.64-4.1,16.34-10.41,12.85-21.93,40.65-22,53.43-.07,4.08,7,10.24,10.34,18.14,10.66,4.12.18,8.24,0,12.36,0,5.13,0,5.35.2,6.12,5.71L168.92,102Z"/><path class="cls-1" d="M73.28,118.26c1.11.87,2.2,1.84,3.42,2.62.86.55,2,1.32,2.79,1.08s1.32-1.63,1.41-2.57c.54-5.28.61-5.4,5.8-5.41,2.62,0,5.25.09,7.87,0,3.18-.14,4.57,1.22,4.51,4.44,0,1.19.7,2.4,1.08,3.6,1.16-.49,2.61-.69,3.42-1.53,2.53-2.6,4.61-2.32,6.91.27a83.31,83.31,0,0,0,6.09,6.09c2.36,2.15,2.39,4.08.09,6.33-.86.85-1.21,2.22-1.79,3.35,1.27.48,2.54,1.33,3.83,1.36,3,.09,4.39,1.27,4.3,4.31s-.11,6.25,0,9.36-1.29,4.54-4.47,4.5c-1.19,0-2.39.72-3.59,1.12.51,1.15.74,2.6,1.58,3.41,2.64,2.53,2.28,4.62-.28,6.91-2.14,1.91-4.14,4-6.09,6.08-2.15,2.32-4.09,2.42-6.33.07-.83-.87-2.21-1.22-3.34-1.8-.49,1.27-1.37,2.53-1.39,3.81,0,3.24-1.52,4.47-4.65,4.35s-6-.12-9,0c-3.17.13-4.57-1.22-4.53-4.43,0-1.2-.7-2.4-1.09-3.61-1.16.51-2.6.74-3.42,1.57-2.53,2.58-4.61,2.3-6.91-.3-2-2.25-4.17-4.3-6.33-6.37s-2-3.72-.07-5.79a16.85,16.85,0,0,0,2-3.61,18,18,0,0,0-4.21-1.37c-2.6-.18-4-1.22-3.92-3.9,0-3.37.05-6.74,0-10.11,0-2.82,1.21-4.07,4-4.15a16.91,16.91,0,0,0,4-1.1c-.58-1.25-.88-2.76-1.78-3.69-2.26-2.35-2-4.26.26-6.37,2.56-2.37,5-4.92,7.49-7.33A10.1,10.1,0,0,1,73.28,118.26ZM63.16,149.75c7.91,1,10.53,7.49,6.21,14.1,1.18,1.46,2.33,2.88,3.44,4.23,6.57-5,13-2.33,14.6,5.65h5.41c1-7.83,7.48-10.48,13.69-6.36l4.54-3.29c-4.94-6.48-2.25-12.92,5.72-14.51v-5.42c-7.87-1-10.52-7.48-6.32-13.74l-3.32-4.5c-6.49,4.94-12.94,2.26-14.55-5.69h-5.4c-1,7.84-7.45,10.47-13.68,6.36L69,129.86c4.94,6.48,2.24,12.94-5.79,14.52Z"/><path class="cls-1" d="M16.35,4.33A42.37,42.37,0,0,0,19.76,7c.86.54,2.07,1.3,2.8,1s1.28-1.65,1.38-2.6C24.45.19,24.53.05,29.77,0c2.62,0,5.25.09,7.86,0,3.2-.13,4.53,1.3,4.49,4.48,0,1.19.72,2.39,1.11,3.58,1.16-.51,2.59-.74,3.42-1.58C49,4.16,51,4,53.29,6.57c2.09,2.31,4.34,4.48,6.6,6.63,2.06,2,2,3.73,0,5.78a16,16,0,0,0-2,3.62c1.29.47,2.56,1.3,3.86,1.34,3,.08,4.33,1.36,4.24,4.36s-.11,6.25,0,9.36-1.39,4.47-4.53,4.44c-1.18,0-2.36.76-3.54,1.18.52,1.15.78,2.56,1.62,3.4C62,49,62,51,59.51,53.31c-2.31,2.1-4.47,4.36-6.64,6.6-2,2.05-3.73,2-5.77,0-1-.93-2.4-1.35-3.62-2-.48,1.28-1.31,2.55-1.35,3.85-.09,3-1.28,4.38-4.32,4.29s-6.24-.11-9.36,0-4.52-1.3-4.49-4.48c0-1.19-.74-2.38-1.15-3.56-1.15.52-2.57.77-3.4,1.6C17,62,15,62,12.77,59.49c-2-2.23-4.15-4.32-6.35-6.36C4.06,51,4.16,49,6.44,46.8c.85-.83,1.15-2.22,1.71-3.35C7,43,5.82,42.14,4.66,42.16,1.3,42.19-.15,40.79,0,37.42c.15-3,.12-6,0-9C-.1,25.22,1.34,23.92,4.51,24c1.19,0,2.38-.73,3.57-1.14-.51-1.15-.74-2.58-1.58-3.41-2.35-2.35-2.45-4.35.07-6.64s5-4.91,7.5-7.32A9.44,9.44,0,0,1,16.35,4.33ZM35.82,59.87c1-7.93,7.61-10.63,14.31-6l4-3.66c-5-6.54-2.68-12,5.68-14.82V30.25c-7.93-1.08-10.61-7.61-5.89-14.34l-3.7-4c-6.55,4.92-12.14,2.6-14.84-5.7H30.25c-1.08,7.91-7.58,10.57-14.3,5.94l-4,3.66c4.95,6.53,2.67,12-5.67,14.82v5.15c7.84,1,10.52,7.6,6.25,13.85L15.9,54.1c6.52-5,13-2.28,14.5,5.77Z"/><path class="cls-1" d="M130.14,4.17A42.15,42.15,0,0,0,133.76,7c.85.54,2.13,1.23,2.82.93s1.2-1.71,1.29-2.68c.49-5,.65-5.2,5.61-5.23,2.62,0,5.25.11,7.87,0,3.37-.17,4.77,1.29,4.7,4.66,0,1.15.83,2.31,1.28,3.46,1-.47,2.38-.69,3.11-1.47,2.6-2.8,4.79-2.43,7.17.29,1.89,2.15,4,4.14,6.08,6.1s2.12,3.91,0,6.07c-.91.93-1.24,2.42-1.82,3.66,1.2.41,2.4,1.16,3.6,1.16,3.16,0,4.6,1.31,4.48,4.52-.12,3-.13,6,0,9,.16,3.41-1.36,4.76-4.7,4.67-1.08,0-2.18.65-3.28,1,.46,1.17.61,2.64,1.42,3.44,2.55,2.5,2.45,4.59-.18,6.92-2.15,1.9-4.15,4-6.1,6.08-2.12,2.3-4.06,2.49-6.33.14-.83-.87-2.22-1.21-3.35-1.78-.49,1.27-1.37,2.54-1.4,3.82,0,3.26-1.6,4.43-4.69,4.31s-6-.11-9,0c-3.21.12-4.54-1.29-4.5-4.48,0-1.19-.72-2.39-1.12-3.58-1.16.51-2.58.74-3.42,1.57C131,61.9,129,62,126.72,59.5c-2.09-2.31-4.35-4.48-6.61-6.64-2-2-2-3.73,0-5.78a16.14,16.14,0,0,0,2-3.62c-1.29-.47-2.56-1.3-3.86-1.33-3-.09-4.36-1.32-4.27-4.34s.11-6.25,0-9.37,1.35-4.49,4.51-4.46c1.17,0,2.36-.77,3.54-1.19-.52-1.15-.78-2.58-1.62-3.41-2.41-2.39-2.3-4.4.17-6.64,2.31-2.09,4.41-4.42,6.67-6.57A23.93,23.93,0,0,1,130.14,4.17Zm14,2c-1,7.94-7.59,10.63-14.18,6.12l-4.12,3.53c5,6.5,2.29,13.06-5.67,14.58v5.43c7.86,1,10.54,7.54,6.32,13.75l3.36,4.46c6.47-4.91,12.94-2.21,14.48,5.76h5.44c1-7.84,7.58-10.55,14.16-6.05l4.12-3.53c-5-6.53-2.28-13,5.68-14.58V30.22c-7.84-1-10.52-7.52-6.07-14.16-1.21-1.39-2.4-2.78-3.55-4.11-6.53,5-13,2.27-14.57-5.77Z"/><path class="cls-1" d="M80.8,35.94H75.23V30.26H80.8Z"/><path class="cls-1" d="M92.86,30.3v5.53H87.17V30.3Z"/><path class="cls-1" d="M99.16,35.83V30.3h5.6v5.53Z"/><path class="cls-1" d="M14.82,149.91H9.33v-5.68h5.49Z"/><path class="cls-1" d="M21.1,149.75v-5.49h5.68v5.49Z"/><path class="cls-1" d="M38.74,149.81H33.31v-5.56h5.43Z"/><path class="cls-1" d="M51,144.27v5.42H45.27v-5.42Z"/><path class="cls-1" d="M129.12,149.71v-5.46h5.6v5.46Z"/><path class="cls-1" d="M141,149.67v-5.42h5.69v5.42Z"/><path class="cls-1" d="M153,149.75v-5.49h5.69v5.49Z"/><path class="cls-1" d="M165.25,144h5.45v5.71h-5.45Z"/><path class="cls-1" d="M90.08,132A15,15,0,1,1,75,146.88,15,15,0,0,1,90.08,132ZM99,147a9,9,0,1,0-9.07,9A9,9,0,0,0,99,147Z"/><path class="cls-1" d="M32.85,18.05A15,15,0,1,1,18,33.19,15.05,15.05,0,0,1,32.85,18.05Zm.26,6A9,9,0,1,0,42,33.19,9,9,0,0,0,33.11,24.06Z"/><path class="cls-1" d="M162,33.06a15,15,0,1,1-14.95-15A15,15,0,0,1,162,33.06ZM138,32.51a9,9,0,1,0,9.57-8.44A9.12,9.12,0,0,0,138,32.51Z"/></g></g></svg>