<svg xmlns="http://www.w3.org/2000/svg" viewBox="0 0 190.78 165.62"><defs><style>.cls-1{fill:#f6f7f7;}.cls-2{fill:#f0647c;}</style></defs><g id="Layer_2" data-name="Layer 2"><g id="Layer_1-2" data-name="Layer 1"><path class="cls-1" d="M69.22,17.82a21.66,21.66,0,0,1,1,2.56C72.9,28.21,91,73.06,151.85,54.14c57.29-17.82,36.4,50.67,29.47,70.08a24.69,24.69,0,0,1-5.86,9.24c-14.62,14.5-68.1,58.47-139.67,9.95C-48,86.59,37.43-48.27,69.22,17.82Z"/><path class="cls-2" d="M147.29,23.39h-7.7a2,2,0,0,0,0,3.94h7.7a2,2,0,0,0,0-3.94Z"/><path class="cls-2" d="M147.29,38.87h-7.7a2,2,0,0,0,0,3.93h7.7a2,2,0,1,0,0-3.93Z"/><path class="cls-2" d="M44.69,142.1h12a2,2,0,0,0,2-2V124.91a2,2,0,0,0-2-2h-12a2,2,0,0,0-2,2v15.22A2,2,0,0,0,44.69,142.1Zm2-15.22h8v11.28h-8Z"/><path class="cls-2" d="M153.89,74.42a8.54,8.54,0,0,0-8.23,6.29H135.2a39.71,39.71,0,0,0-6.77-20.27,2,2,0,1,0-3.26,2.2,36.13,36.13,0,1,1-5.66-6.53,2,2,0,1,0,2.65-2.91A39.75,39.75,0,0,0,105,44V35.72a.66.66,0,0,1,.66-.65H124.3V46.74a3.81,3.81,0,0,0,3.81,3.8h24a3.8,3.8,0,0,0,3.8-3.8V19.46a3.81,3.81,0,0,0-3.8-3.81h-24a3.82,3.82,0,0,0-3.81,3.81V31.13H105.62A4.6,4.6,0,0,0,101,35.72v7.5a41,41,0,0,0-5.77-.42,40.13,40.13,0,0,0-6,.46V35.72a4.6,4.6,0,0,0-4.59-4.59H69.16V20.24a4.6,4.6,0,0,0-4.59-4.59H36.76a4.6,4.6,0,0,0-4.59,4.59v3.81a2,2,0,0,0,3.93,0V20.24a.66.66,0,0,1,.66-.65H64.57a.65.65,0,0,1,.65.65V37.69H36.1V33.23a2,2,0,1,0-3.93,0V37.7a4.08,4.08,0,0,0-3.81,4A9.1,9.1,0,0,0,29.5,45a8.05,8.05,0,0,0,7.26,4.5H64.6a8.08,8.08,0,0,0,7.23-4.43A9.21,9.21,0,0,0,73,41.75a4.07,4.07,0,0,0-3.8-4V35.07H84.63a.66.66,0,0,1,.66.65v8.34a40.09,40.09,0,0,0-30,36.65H45.12a8.54,8.54,0,1,0,.12,3.94H55.3a40.1,40.1,0,0,0,30,36.91v8.34a.65.65,0,0,1-.66.65H66.47V118.88a3.8,3.8,0,0,0-3.8-3.8h-24a3.8,3.8,0,0,0-3.8,3.8v27.28a3.81,3.81,0,0,0,3.8,3.81h24a3.82,3.82,0,0,0,3.81-3.81V134.49H84.63a4.6,4.6,0,0,0,4.59-4.59v-7.54a40.13,40.13,0,0,0,6,.46,40.71,40.71,0,0,0,5.77-.42v7.5a4.6,4.6,0,0,0,4.59,4.59h21.31v10.89a4.6,4.6,0,0,0,4.59,4.59h17.2a4.6,4.6,0,0,0,4.59-4.59v-6.79a2,2,0,0,0-3.94,0v6.79a.65.65,0,0,1-.65.65h-17.2a.66.66,0,0,1-.66-.65V119.67a.67.67,0,0,1,.66-.66h17.2a.66.66,0,0,1,.65.66v9a2,2,0,0,0,3.94,0v-9a4.6,4.6,0,0,0-4.59-4.59h-17.2a4.6,4.6,0,0,0-4.59,4.59v10.88H105.62a.66.66,0,0,1-.66-.65v-8.28a40.06,40.06,0,0,0,30.26-37h10.31a8.53,8.53,0,1,0,8.36-10.23ZM128.24,19.59H152V31.13H128.24Zm0,15.48H152V46.61H128.24ZM43.19,45.56H36.76A4.12,4.12,0,0,1,33,43.24l-.72-1.43a.13.13,0,0,1,0-.06.13.13,0,0,1,.12-.13H43.19Zm11,0H47.12V41.62H54.2ZM69,41.86a.13.13,0,0,1,0,.06l-.69,1.36a4.16,4.16,0,0,1-3.72,2.28H58.14V41.62H68.9a.12.12,0,0,1,.12.13ZM36.89,87.53a4.59,4.59,0,1,1,4.59-4.59A4.6,4.6,0,0,1,36.89,87.53ZM62.54,146H38.78V119H62.54v27Zm91.35-58.5a4.59,4.59,0,1,1,4.59-4.59A4.6,4.6,0,0,1,153.89,87.53Z"/><circle class="cls-2" cx="132.94" cy="25.36" r="1.97"/><circle class="cls-2" cx="132.94" cy="40.84" r="1.97"/><circle class="cls-2" cx="140.12" cy="141.44" r="1.97"/><path class="cls-2" d="M87.32,58.1l-.59.17a5,5,0,0,0-3.63,4.81v4.66S66.23,79.19,78.88,96.66c4.82,6.63,16.87,7.83,16.87,7.83V68.34s15.67,1.21,14.46,19.28c-1.2,6-4.82,7.84-4.82,7.84V81a7.4,7.4,0,0,0-2.15-5.22l-2.06-2v36.75l1.58-.79a3.7,3.7,0,0,0,2-3.3v-5s7.23-4.82,7.83-9.64a29.62,29.62,0,0,1,4.82,4.82l.22-1.75a5.74,5.74,0,0,0-2-5.08l-1.87-1.6s4.22-22.9-21.69-24.1v36.15S77.68,98.47,77.68,83.41c0-6,5.42-10.85,5.42-10.85V86.92a7.51,7.51,0,0,0,2.2,5.31L87,94Z"/></g></g></svg>