<svg xmlns="http://www.w3.org/2000/svg" viewBox="0 0 190.78 165.62"><defs><style>.cls-1{fill:#f6f7f7;}.cls-2{fill:#f0647c;}</style></defs><g id="Layer_2" data-name="Layer 2"><g id="Layer_1-2" data-name="Layer 1"><path class="cls-1" d="M69.22,17.82a21.66,21.66,0,0,1,1,2.56C72.9,28.21,91,73.06,151.85,54.14c57.29-17.82,36.4,50.67,29.47,70.08a24.69,24.69,0,0,1-5.86,9.24c-14.62,14.5-68.1,58.47-139.67,9.95C-48,86.59,37.43-48.27,69.22,17.82Z"/><g id="Page-1"><g id="_077---Mobile-Money-Transfer" data-name="077---Mobile-Money-Transfer"><path id="Shape" class="cls-2" d="M147.69,91a4.19,4.19,0,0,0-4.78-1,4.69,4.69,0,0,0-2.74,4.35v2.08h-6.4V24a8.79,8.79,0,0,0-8.53-9H65.53A8.8,8.8,0,0,0,57,24V51.14H50.6V49.06a4.7,4.7,0,0,0-2.73-4.36,4.2,4.2,0,0,0-4.77,1L32.67,56.89a5,5,0,0,0,0,6.61l10.4,11.12a4.2,4.2,0,0,0,4.78,1,4.69,4.69,0,0,0,2.73-4.35V69.24H57v72.39a8.8,8.8,0,0,0,8.53,9.05h59.71a8.8,8.8,0,0,0,8.54-9.05V114.48h6.39v2.08a4.82,4.82,0,0,0,1.28,3.33,4.29,4.29,0,0,0,3.12,1.38,4.23,4.23,0,0,0,3.11-1.39l10.42-11.14a5,5,0,0,0,0-6.61Zm-35.9-71.52-2.74,3.09A4.15,4.15,0,0,1,105.94,24H84.83a4.16,4.16,0,0,1-3.11-1.43L79,19.47ZM61.27,24a4.4,4.4,0,0,1,4.26-4.52h7.61l5.47,6.18a8.28,8.28,0,0,0,6.22,2.86h21.11a8.31,8.31,0,0,0,6.23-2.86l5.47-6.18h7.6A4.4,4.4,0,0,1,129.51,24V96.38h-7.19a33.26,33.26,0,0,0-1.68-30.52A29.4,29.4,0,0,0,95.39,51.14H61.27ZM121,82.81c0,15-11.46,27.15-25.59,27.15S69.8,97.8,69.8,82.81,81.25,55.66,95.39,55.66,121,67.82,121,82.81ZM48.47,64.71A2.19,2.19,0,0,0,46.34,67v4.35l-.22.12L35.72,60.32a.23.23,0,0,1,0-.26L46.12,48.93l.22.13V53.4a2.19,2.19,0,0,0,2.13,2.26H80.09a30.89,30.89,0,0,0-9.17,9Zm81,76.92a4.4,4.4,0,0,1-4.27,4.52H65.53a4.4,4.4,0,0,1-4.26-4.52v-3.52a8.11,8.11,0,0,0,4.26,1.26h59.71a8.12,8.12,0,0,0,4.27-1.26v3.52Zm0-11.31a4.4,4.4,0,0,1-4.27,4.52H65.53a4.4,4.4,0,0,1-4.26-4.52V69.24h7.18a33.29,33.29,0,0,0,1.68,30.52,29.41,29.41,0,0,0,25.26,14.72h34.12Zm15.14-13.63-.21-.13v-4.34a2.2,2.2,0,0,0-2.13-2.26H110.69a31,31,0,0,0,9.17-9h22.45a2.2,2.2,0,0,0,2.13-2.26V94.3l.21-.12,10.4,11.11a.24.24,0,0,1,0,.27Z"/><path class="cls-2" d="M87.51,56.93l-.59.17a5,5,0,0,0-3.63,4.81v4.66S66.42,78,79.07,95.49c4.82,6.63,16.87,7.84,16.87,7.84V67.18s15.66,1.2,14.46,19.28c-1.21,6-4.82,7.83-4.82,7.83V79.87a7.38,7.38,0,0,0-2.16-5.21l-2.06-2.06v36.75l1.58-.79a3.68,3.68,0,0,0,2-3.29v-5s7.23-4.82,7.83-9.64a30.13,30.13,0,0,1,4.82,4.82l.22-1.75a5.77,5.77,0,0,0-2-5.08L114,87.06s4.22-22.9-21.68-24.1V99.11S77.87,97.3,77.87,82.24c0-6,5.42-10.85,5.42-10.85V85.75a7.51,7.51,0,0,0,2.2,5.32l1.71,1.71Z"/></g></g></g></g></svg>