<svg xmlns="http://www.w3.org/2000/svg" viewBox="0 0 190.78 165.62"><defs><style>.cls-1{fill:#f6f7f7;}.cls-2{fill:#f0647c;}</style></defs><g id="Layer_2" data-name="Layer 2"><g id="Layer_1-2" data-name="Layer 1"><path class="cls-1" d="M69.22,17.82a21.66,21.66,0,0,1,1,2.56C72.9,28.21,91,73.06,151.85,54.14c57.29-17.82,36.4,50.67,29.47,70.08a24.69,24.69,0,0,1-5.86,9.24c-14.62,14.5-68.1,58.47-139.67,9.95C-48,86.59,37.43-48.27,69.22,17.82Z"/><path class="cls-2" d="M40.33,69.41l4.45-.71.71,4.51-4.45.7Z"/><path class="cls-2" d="M129.76,132.84l-6.57,13,4,2,6-11.93,25.62-4a2.25,2.25,0,0,0,1.88-2.57h0l-4.08-25.61,4.82-4.82-3.18-3.18-5.63,5.63a2.25,2.25,0,0,0-.63,1.94l3.9,24.52-24.54,3.85A2.25,2.25,0,0,0,129.76,132.84Z"/><path class="cls-2" d="M36.77,51.91,34.83,39.78l24.54-3.85A2.25,2.25,0,0,0,61,34.72l7.7-15.2-4-2L57.51,31.66l-25.61,4A2.27,2.27,0,0,0,30,38.26h0l2.28,14.36Z"/><path class="cls-2" d="M147.05,67l3.38-21.24a2.25,2.25,0,0,0-1.87-2.58h0l-21.24-3.34-9.73-19.18a2.28,2.28,0,0,0-1.31-1.13,2.31,2.31,0,0,0-1.73.14l-19.15,9.8-19.15-9.8a2.25,2.25,0,0,0-3,1h0L63.47,39.84,42.22,43.18a2.24,2.24,0,0,0-1.87,2.57h0L43.73,67,28.51,82.19a2.25,2.25,0,0,0,0,3.18h0l15.21,15.19-3.37,21.24a2.25,2.25,0,0,0,1.87,2.58h0l21.25,3.34,9.73,19.18A2.23,2.23,0,0,0,74.51,148a2.09,2.09,0,0,0,.7.11,2.29,2.29,0,0,0,1-.24l19.15-9.81,19.15,9.8a2.24,2.24,0,0,0,3-1h0l9.73-19.18,21.25-3.34a2.25,2.25,0,0,0,1.87-2.57h0l-3.38-21.24,15.22-15.19a2.26,2.26,0,0,0,0-3.19h0Zm-4,31.19a2.28,2.28,0,0,0-.64,2l3.21,20.14-20.16,3.17a2.27,2.27,0,0,0-1.66,1.2l-9.23,18.2-18.16-9.3a2.27,2.27,0,0,0-2.06,0l-18.16,9.3L67,124.65a2.23,2.23,0,0,0-1.65-1.2l-20.16-3.16,3.2-20.14a2.23,2.23,0,0,0-.63-2L33.29,83.78l14.43-14.4a2.24,2.24,0,0,0,.63-1.95l-3.2-20.15,20.16-3.17A2.23,2.23,0,0,0,67,42.91l9.24-18.2L94.36,34a2.27,2.27,0,0,0,2.06,0l18.16-9.3,9.23,18.2a2.27,2.27,0,0,0,1.66,1.2l20.16,3.17-3.21,20.14a2.28,2.28,0,0,0,.64,2l14.43,14.41Z"/><path class="cls-2" d="M132,78H111.69V66.78a11.26,11.26,0,0,0-11.26-11.25,2.25,2.25,0,0,0-2.18,1.7l-5.47,21.9a4.49,4.49,0,0,1-4.37,3.41H86.93V80.29A2.25,2.25,0,0,0,84.68,78h-18a2.26,2.26,0,0,0-2.26,2.25v36a2.26,2.26,0,0,0,2.26,2.25h18a2.25,2.25,0,0,0,2.25-2.25v-2.25h6.23a45.19,45.19,0,0,0,19.59,4.5H123a6.7,6.7,0,0,0,5.85-10.06,6.7,6.7,0,0,0,2.66-8.21,6.66,6.66,0,0,0,4.78-8.12,6.33,6.33,0,0,0-.69-1.68A6.74,6.74,0,0,0,132,78Zm-49.53,36H68.92V82.54h13.5Zm47.28-18H118.44v4.5h6.76a2.25,2.25,0,0,1,0,4.5h-9v4.51H123a2.25,2.25,0,0,1,0,4.5h-10.2a40.59,40.59,0,0,1-18.06-4.28,2.22,2.22,0,0,0-1-.22H86.93V87h1.48a9,9,0,0,0,8.73-6.82l5-20a6.77,6.77,0,0,1,5,6.53V80.29a2.25,2.25,0,0,0,2.25,2.25H132a2.25,2.25,0,0,1,0,4.5H120.7v4.51h9a2.25,2.25,0,0,1,0,4.5Z"/></g></g></svg>