<svg xmlns="http://www.w3.org/2000/svg" viewBox="0 0 190.78 165.62"><defs><style>.cls-1{fill:#f6f7f7;}.cls-2{fill:#f0647c;}</style></defs><g id="Layer_2" data-name="Layer 2"><g id="Layer_1-2" data-name="Layer 1"><path class="cls-1" d="M69.22,17.82a21.66,21.66,0,0,1,1,2.56C72.9,28.21,91,73.06,151.85,54.14c57.29-17.82,36.4,50.67,29.47,70.08a24.69,24.69,0,0,1-5.86,9.24c-14.62,14.5-68.1,58.47-139.67,9.95C-48,86.59,37.43-48.27,69.22,17.82Z"/><path class="cls-2" d="M90.81,46.09c12-1.05,22.35,2.13,30.76,10.58s11.62,18.64,10.49,30.63c12.11.55,21.63,5.49,28,15.81a30.07,30.07,0,0,1,4.44,20.2c-2.21,16.07-14.88,28.07-30,28.78a32.82,32.82,0,0,1-17-3.63,32.2,32.2,0,0,1-12.86-12,33.59,33.59,0,0,1-4.7-16.88c-12,1-22.37-2.15-30.78-10.6S57.61,90.27,58.67,78.33C46.88,77.8,37.54,73,31.15,63.14a30.46,30.46,0,0,1-4.89-20.63c1.92-16,14.74-28.29,29.79-29,9.37-.43,17.62,2.28,24.49,8.71S90.58,36.58,90.81,46.09Zm37,36.76a32.4,32.4,0,1,0-32.42,32.36A32.63,32.63,0,0,0,127.78,82.85ZM47.92,51.52c-7.08-8.37-7.44-17.25-1.17-23.75a16.06,16.06,0,0,1,21.58-1.6,15.6,15.6,0,0,1,5.94,9.66c1.11,6.14-.89,11.28-5.89,16,2.15.5,4,1.58,5.13,1.08,4.23-1.86,8.23-4.25,12.54-6.56.89-11.86-8.1-24.1-20.43-27.3a27.9,27.9,0,0,0-32.4,15.25c-4.56,10-2.27,24.58,4.66,29.39C39.15,58,42.5,54.06,47.92,51.52Zm81.81,45.29c7.9-.6,13.93,2.21,17.2,9.31s1.4,13.67-4.25,19.27A16.9,16.9,0,0,1,153,137.82c7.34-6.83,9.15-20.21,4.24-30.25s-16.56-16.84-26.1-15.22Zm14.2,47.74c4.39-1.5,5.06-2.48,4.42-6-.83-4.61-4.44-8.67-9.1-9.12a69.38,69.38,0,0,0-14,0c-4.56.47-8,4.48-8.85,9-.71,4,.14,5.18,4.39,6a9.85,9.85,0,0,1,.07-3.22c.41-1.07,1.24-2.58,2.12-2.76,1.79-.37,2.36,1.15,2.36,2.78v5.31a27.75,27.75,0,0,0,13.88,0c0-2-.28-3.79.1-5.41.24-1.05,1.44-1.88,2.22-2.8a12.46,12.46,0,0,1,2.28,2.8C144.23,142,143.93,143.19,143.93,144.55ZM58.44,27.47A11.47,11.47,0,1,0,70,39.15,11.51,11.51,0,0,0,58.44,27.47ZM120.81,113a11.54,11.54,0,0,0,11.57,11.48,11.6,11.6,0,0,0,0-23.19C126.75,101.23,120.79,107.28,120.81,113Zm-74-42.31c0-1.23-.31-2.51.09-3.5s1.51-1.84,2.31-2.74c.76.92,1.87,1.73,2.2,2.78.38,1.24-.07,2.71.16,4A2.52,2.52,0,0,0,53,73c2.1.42,4.25.53,6.19.73,1.41-3.16,2.47-6.14,4-8.86s3.61-5.31,5.76-8.42a34.67,34.67,0,0,0-5.45-1.18c-3.24-.19-6.49-.1-9.73,0a11.32,11.32,0,0,0-11.1,8.56C41.53,67.88,42.25,69.15,46.83,70.65ZM115.38,114c-1.58.79-3.6,1.92-5.71,2.83-5.57,2.39-5.69,2.37-4.48,8.38A24.68,24.68,0,0,0,111.68,138c1.43-6.08,4.81-10.14,9.55-12.25C119.26,121.8,117.34,118,115.38,114Z"/><path class="cls-2" d="M84.92,143.55c-6.41-1.69-12.56-2.6-18.14-4.91-22.51-9.29-35.23-26.23-38.06-50.5-.14-1.25-.28-2.51-.33-3.77-.08-1.76-.13-3.71,2.35-3.72,2.28,0,2.35,1.81,2.36,3.5a49.79,49.79,0,0,0,4.24,19.93c8.72,19.66,23.91,30.8,45.11,33.87a17.65,17.65,0,0,0,2.23,0c-1-1-2-1.7-2.27-2.6a10.87,10.87,0,0,1-.08-3.38c1.07.05,2.5-.33,3.14.22a64.68,64.68,0,0,1,6.87,6.88,3.15,3.15,0,0,1,0,3A60.32,60.32,0,0,1,85.43,149c-.64.54-2.17,0-3.29,0,0-1.06-.26-2.28.18-3.11S84,144.34,84.92,143.55Z"/><path class="cls-2" d="M106,27.66c1,1.09,2,1.69,2.28,2.53a12.21,12.21,0,0,1,.22,3.39c-1.14-.06-2.64.32-3.34-.27-2.34-2-4.4-4.25-6.57-6.42-1.29-1.29-1.12-2.56.08-3.77q3.13-3.18,6.32-6.31c1.1-1.07,2.35-1.47,3.54-.19s.75,2.5-.39,3.53c-.73.66-1.58,1.19-2.37,1.78l.38.71c3.11.55,6.25,1,9.34,1.67A59.71,59.71,0,0,1,162.06,77.7c.12,1.43.29,2.87.33,4.31s-.37,3-2.29,3-2.42-1.31-2.42-2.9a50.36,50.36,0,0,0-4.42-21c-8.83-19.44-24-30.48-45.09-33.45A18.17,18.17,0,0,0,106,27.66Z"/><path class="cls-2" d="M88.94,57.2l-.59.17a5,5,0,0,0-3.63,4.81v4.66S67.85,78.29,80.5,95.76c4.82,6.63,16.87,7.83,16.87,7.83V67.44S113,68.65,111.83,86.72c-1.2,6-4.82,7.84-4.82,7.84V80.14a7.32,7.32,0,0,0-2.16-5.21l-2-2.06v36.75l1.57-.79a3.68,3.68,0,0,0,2-3.3v-5s7.23-4.82,7.83-9.64a29.62,29.62,0,0,1,4.82,4.82l.22-1.75a5.76,5.76,0,0,0-2-5.08l-1.87-1.6s4.21-22.9-21.69-24.1V99.38S79.3,97.57,79.3,82.51c0-6,5.42-10.85,5.42-10.85V86a7.49,7.49,0,0,0,2.2,5.31l1.72,1.72Z"/></g></g></svg>