<svg xmlns="http://www.w3.org/2000/svg" viewBox="0 0 185.61 185.31"><defs><style>.cls-1{fill:#f6637b;}</style></defs><g id="Layer_2" data-name="Layer 2"><g id="Layer_1-2" data-name="Layer 1"><path class="cls-1" d="M166.39,156.56c8.4,8.14,7.32,18.33,7,28.64H125.8c-.38-10.08-1.48-20.3,6.8-28.43-1.52-2.14-3-4.16-4.39-6.21a2.38,2.38,0,0,0-2.19-1,12.25,12.25,0,0,1-9.15-3.91l-5.26,5.7c10.15,9.43,8,21.8,7.91,33.94H66V169.62c-6.06,2.5-6.06,2.5-6.06,8.52v7.09h-48c0-3.41-.08-6.75,0-10.09a3.42,3.42,0,0,0-2.12-3.65C3.2,167.93,0,162.24,0,154.66c0-10.51,0-21,0-31.51a32.45,32.45,0,0,1,10-24,5.56,5.56,0,0,0,2-4.36q-.13-13,0-26.07c0-1.84-.48-2.81-2.29-3.41C7.3,64.47,6.17,62.44,6,60a42.08,42.08,0,0,1,0-6.15c.26-3.71,2.59-5.87,6.4-6s7.44,0,11.48,0V36.34a12.41,12.41,0,0,1,5.88-.17V47.33c2,.81,3.81.45,6,.44V24.48c2.19-.85,3.95-.57,6.16-.32V47.43a15,15,0,0,0,5.81.27V36.4c2.14-.85,3.9-.43,6-.41V47.46a14.83,14.83,0,0,0,5.53.27c1-1.25.58-2.63.59-3.9,0-11.95,0-23.9,0-35.85,0-6.14,1.87-8,8-8h50c5.84,0,7.74,1.91,7.75,7.85,0,11.83,0,23.67,0,35.5v4c2,.8,3.74.23,6,.53V36.31a15.08,15.08,0,0,1,6-.18V47.62h5.85V24.36c2-.69,3.76-.4,6-.31V47.41a12.3,12.3,0,0,0,6.08.14V36.38a11.84,11.84,0,0,1,5.88-.21V47.83c3.85,0,7.41,0,11,0,4.84.06,7,2.26,7.17,7.11s.57,9.78-5.89,11.11V89.21c1.09.9,2.22.5,3.25.59,4.84.38,8.52,3.82,8.49,8.67-.09,10.74.75,21.49-.61,32.2a13.91,13.91,0,0,0,.42,4.63c1.29,6.15-2.68,12.9-8.75,13.74-3.73.52-6.23,1.76-7.92,5A15.57,15.57,0,0,1,166.39,156.56Zm-52.7-30.09h0c0-2.9,0-5.8,0-8.69s-1.33-4.14-4.22-4.08c-4.22.1-8.45,0-12.67,0a18.06,18.06,0,0,1-13-4.64A4.68,4.68,0,0,0,80,107.85c-4.63.43-8,4-8.11,9.05-.13,6-.18,12.08,0,18.11a14.58,14.58,0,0,0,13.94,14.4,116.81,116.81,0,0,0,13.75,0c8.11-.47,13.78-6.44,14.13-14.61C113.79,132,113.69,129.24,113.69,126.47Zm11.45-11.76c2.37-15.11-7.93-29.24-22.38-30.6a107.44,107.44,0,0,0-19.89,0c-14.62,1.35-25.76,16.71-22.3,30.75,1.84-1.07,4.92-.09,5.7-2.24,2.19-6,6.43-9.34,12.25-10.84,0-2.1-.94-3.81-.44-5.8a11.36,11.36,0,0,1,5.5.07c2,8.66,5.78,11.7,14.46,11.72q6.17,0,12.31,0c2.54,0,5.19.52,6.45,2.61C118.75,113.57,121.75,114,125.14,114.71Zm-70.6,5.51c-.4-5.65-1.45-11.09,0-16.38.64-2.3-.19-3.23-1.91-4.29-6.07-3.73-12.76-4-19.59-3.86-14.63.27-26.43,11.22-27,25.86-.43,11.33-.21,22.69-.06,34A11.18,11.18,0,0,0,13,166.22,33.36,33.36,0,0,1,19,156.47c-3.88-4-6.7-8.49-6.9-14.06a151.09,151.09,0,0,1,0-15.2c.38-5.95,3.77-10,9.15-12.43,1.07-.49,2.39-.41,3.24-1.38.29-1.81-1.16-3.49-.28-5.38a11.05,11.05,0,0,1,5.27,0c3.09,9.68,5.74,11.59,16,11.6A36.09,36.09,0,0,1,54.54,120.22ZM137.9,108a10.74,10.74,0,0,1,5.34,0c3,9.69,5.73,11.65,15.91,11.62,1.81,0,3.62-.05,5.43,0,2.53.07,5.08.83,6.32,2.94,2,3.32,5,3.51,8.6,4.12,0-9.51.09-18.77-.06-28,0-2.38-2-3-4.2-3-10,0-20,0-30,.07a24.82,24.82,0,0,0-13,4c-.89.56-2,1-1.65,2.43,1.29,4.62,1.25,9.34.7,14.74,2.5-1.92,4.87-2.41,7-3.31C138.35,111.66,137.32,110.08,137.9,108Zm-119.84,27h0c0,1.81,0,3.62,0,5.43.16,7.94,5.2,13.78,13.07,14.86a31.92,31.92,0,0,0,10.81-.18,14.56,14.56,0,0,0,11.79-13.74c.14-2.89,0-5.79,0-8.69,0-7.11,0-7.23-7.27-7.08-6.44.14-12.58-.37-17.39-5.37-.88-.92-2-.7-3.07-.58a8.87,8.87,0,0,0-8,8.47C18,130.47,18.06,132.77,18.06,135.07Zm113.69.07h0c0,1.81,0,3.63,0,5.43.21,7.92,5.33,13.79,13.13,14.83a33.21,33.21,0,0,0,10.1-.1A14.68,14.68,0,0,0,167.44,141c.1-3.74-.06-7.49.06-11.23.1-3-1.31-4.19-4.14-4.13-1.45,0-2.9,0-4.34,0-6,.27-11.57-.74-16-5.21-1-1-2.19-.9-3.38-.75a8.86,8.86,0,0,0-7.86,8.54C131.65,130.55,131.75,132.85,131.75,135.14Zm-65.63-117v66c4.66-1.15,5.85-4,5.77-8.48-.29-15.92-.13-31.86-.09-47.79,0-1.27-.45-2.65.45-3.72h41.48V27.6q0,24.43,0,48.88c0,5.36.46,6,5.66,7.55V18.17ZM18.2,92.81C31.67,88.27,44.75,88,57.91,95.42c3.94-9.86,1-19.69,2.06-29.27H18.2ZM72,179.25h41.61c0-3.66.18-7,0-10.4a20.51,20.51,0,0,0-5.35-12.38,4.28,4.28,0,0,0-4.63-1.6,58.1,58.1,0,0,1-21.56,0,4.6,4.6,0,0,0-4.92,1.76C71.22,163.2,71.42,171.08,72,179.25ZM128.3,95.14c12.08-8.4,26-4.14,39-5.65V66.07H125.63c0,7.38.08,14.58,0,21.78A9.32,9.32,0,0,0,128.3,95.14ZM132,179.28h35.3c.68-6.55.27-12.54-4.22-17.57a3.39,3.39,0,0,0-4-1.24,33.82,33.82,0,0,1-18.53.07,3.81,3.81,0,0,0-4.6,1.5C131.62,167.07,131.26,172.93,132,179.28Zm-78.4.11c.71-6.67.24-12.64-4.2-17.69a3.42,3.42,0,0,0-4-1.24,35,35,0,0,1-18.89,0,3.23,3.23,0,0,0-3.77,1.09c-4.65,5.19-5.23,11.26-4.28,17.84ZM12.44,59.55H59.58c.27-2,.71-3.81-.27-5.52H12.43A8.42,8.42,0,0,0,12.44,59.55Zm113.5.08h47.42c0-2,.48-3.71-.35-5.59h-46.9C125.36,55.87,125.64,57.52,125.94,59.63ZM66.17,11.68h53.44c-.16-2,.37-3.77-.35-5.48H66.14A13.15,13.15,0,0,0,66.17,11.68ZM59.85,136.32c.51,7.87-1.21,14.69-7.15,20a30.51,30.51,0,0,1,6.14,9.94c4.44-2.16,6.69-5.52,6.9-9.86.29-6.12.07-12.26.07-18.43Zm47.68-94.49a71,71,0,0,0,0-11.66H96V41.83ZM78,30a61.51,61.51,0,0,0,0,11.68h11.6A68,68,0,0,0,89.53,30Zm-.08,18A67.45,67.45,0,0,0,78,59.59H89.5V48Zm29.71.12H96V59.51H107.6ZM78,78.56l11.63-1.13V66.12H78Zm17.9-.85c4.08-.16,7.73.48,11.62.89V66.18H95.86Zm77.82,54v11.6c3.81-.65,6-2.76,5.77-5.78C179.22,134.39,177.61,132.24,173.68,131.75ZM65.73,119.89c-4.25.87-6,2.86-5.72,6.27.23,3.18,2.05,4.82,5.72,5Zm54.07,11.28c3.88-.25,5.86-2.33,5.71-5.81-.14-3.32-2.11-5.14-5.71-5.23Zm5.62,12.32v-7.12l-5.79,1.69C120.42,141.22,122,143.18,125.42,143.49Z"/><path class="cls-1" d="M53.67,77.57H48.29c-.83-1.7-.36-3.49-.36-5.31,1.74-.93,3.52-.42,5.34-.38C54.24,73.61,53.72,75.39,53.67,77.57Z"/><path class="cls-1" d="M41.77,77.44a12.22,12.22,0,0,1-5.34.08C35.57,75.8,36,74,36.15,72.2c1.75-.86,3.53-.21,5.28-.43C42.29,73.7,42,75.45,41.77,77.44Z"/><path class="cls-1" d="M29.73,71.93v5.48a13.06,13.06,0,0,1-5.42.14,11.59,11.59,0,0,1-.17-5.5A16.21,16.21,0,0,1,29.73,71.93Z"/><path class="cls-1" d="M155.84,71.94h5.55v5.45a10.55,10.55,0,0,1-5.55,0Z"/><path class="cls-1" d="M143.5,72.1a14,14,0,0,1,5.66-.14c.7,1.71.41,3.46.23,5.31-1.76.9-3.55.28-5.3.43C143.05,75.82,143.77,74,143.5,72.1Z"/><path class="cls-1" d="M137.52,71.72v5.51c-1.75,1-3.52.3-5.24.47-1.05-1.87-.37-3.66-.53-5.38C133.61,71.29,135.39,72,137.52,71.72Z"/></g></g></svg>