<svg xmlns="http://www.w3.org/2000/svg" viewBox="0 0 194.9 193"><defs><style>.cls-1{fill:#1fa299;}</style></defs><g id="Layer_2" data-name="Layer 2"><g id="Layer_1-2" data-name="Layer 1"><path class="cls-1" d="M76.2,114.12c.47-3.92,1.3-7.82,1.36-11.75.17-10.32.06-20.64-.1-30.95,0-1.62-.53-4.11-1.46-4.68C67.17,61.27,58.19,56.13,49.25,50.9l-1,1.4c.75.91,1.37,2.17,2.28,2.67C54.76,57.32,56,59.87,55,65.4q-3.21,16.27-6.7,32.45c-1.14,5.29-3.7,7.25-8.24,6Q26.24,100,12.59,95.7c-4.44-1.4-5.46-4.33-4.59-12A30.49,30.49,0,0,1,4.14,82.2C1,80.43-.64,77.49.24,73.2,2.64,61.56,5,49.93,7.57,38.34c1.1-5,3.61-6.79,8-5.84a33.6,33.6,0,0,1,7.76,2.36c3.83,1.88,5.45-.36,6.56-4.19,3.49-12.11,8.66-14.57,18.36-8.83,10,5.88,19.92,11.83,30,17.46a23.23,23.23,0,0,0,8.08,2.27c18.06,2.52,34.8-2,50.26-13.64,4-3,8.52-5.21,12.88-7.57,7-3.8,13.51,0,15.45,8.79,1.45,6.6,2.12,7.07,7.53,5.45,2.59-.78,5.17-1.66,7.8-2.18,3.79-.74,6.35,1.34,7.29,5.75,2.41,11.28,4.78,22.58,7,33.92,1.21,6.2.08,7.82-7.14,11.77-.18,10.24-.32,10.44-8.84,13-7.36,2.2-14.71,4.46-22.08,6.64-5.92,1.75-8.48,0-9.95-7q-3.25-15.47-6.31-31c-1.17-5.94-.07-8.25,4.54-10.7.81-.43,1.31-1.71,2-2.59l-1.05-1.33c-8.81,5.2-17.64,10.32-26.36,15.72-.88.54-1.44,2.7-1.49,4.14a407,407,0,0,0,3.5,69.2c1.69,12.5,2.93,25.09,4.24,37.66.83,7.92-3.2,14.21-9.49,15.25-5.69.94-11.06-4.28-12.09-11.89-2.36-17.43-4.66-34.88-7.76-52.47-1.86,7-3.64,14-5.6,20.92-2.47,8.77-9.26,13.22-15.93,9.94A15.53,15.53,0,0,1,68,152.8c-5.28-10.58-10.17-21.44-15-32.34C50,113.52,51.84,106,57.16,102.53S68.61,101.27,72,108c1,2,2,4.06,2.95,6.09Zm9.11-24.66c1.34,11.13-.62,24.37-4.38,37.26-.61,2.1-2.43,5.25-3.61,5.2-1.71-.07-3.83-2.23-4.93-4.18-2.42-4.33-4.33-9.08-6.43-13.68-1.07-2.36-2.32-4.71-4.88-3.15-2.9,1.78-1.64,4.48-.52,6.92,4.29,9.32,8.44,18.74,13,27.86,1.14,2.28,3.73,5.15,5.42,4.94s3.77-3.6,4.55-6.1c2.56-8.22,4.49-16.71,6.88-25,1.79-6.24,7.55-8.48,10.94-4.1,1.49,1.93,2.29,5,2.67,7.71,2.65,18.65,5,37.36,7.75,56,.25,1.66,2.35,2.93,3.59,4.38.77-1.75,2.28-3.58,2.17-5.25-.47-7.23-1.3-14.44-2.22-21.62-3.67-28.94-6.75-57.92-5.58-87.32.22-5.4,1.82-8.84,5.85-11.16,12.3-7.09,24.53-14.38,36.78-21.59,1.14-.67,2.49-1.12,3.31-2.16s1.56-3.09,1.18-3.73a4.59,4.59,0,0,0-3.35-1.89c-1-.08-2.08.87-3.09,1.45-10.13,5.88-20.17,12-30.44,17.55a28.13,28.13,0,0,1-11.33,3.12,159.35,159.35,0,0,1-22,0,30.79,30.79,0,0,1-12.13-3.37c-10-5.34-19.78-11.38-29.67-17.11A10.53,10.53,0,0,0,41,28.69a3.09,3.09,0,0,0-2.64,1.65,4.66,4.66,0,0,0,.58,3.6,12.1,12.1,0,0,0,3.6,2.54c12.12,7.15,24.2,14.41,36.42,21.33,4.53,2.57,6.64,6.3,6.43,12.3C85.16,75.69,85.31,81.28,85.31,89.46Zm67.83,7.05,27.75-8.46L174,54.38l-27.82,8.21C148.52,74.05,150.76,85,153.14,96.51ZM41.9,96.46C44.24,84.92,46.46,74,48.78,62.57L21,54.41c-2.38,11.66-4.58,22.42-6.9,33.73ZM8.53,76.07,10,75.5c1.45-7,2.89-14,4.38-21,1.42-6.67,2.88-8,8.52-7.76.68,0,1.35,0,2,0l.48-1.57c-2.61-4.39-7.52-2.88-11.39-5.37C11.61,51,9.3,61.78,7.18,72.57,7,73.55,8.05,74.89,8.53,76.07Zm161-32.49-.34,1.68c1,.51,2.1,1.47,3.13,1.44,5.49-.14,7,1,8.37,7.35s2.6,12.45,3.75,18.71c.58,3.13,1.75,3.41,3.87,1.64-2.35-11.32-4.68-22.57-7.1-34.26Zm-17.45,3.68,1.52,5.11,9.91-3.1L162,41.17ZM42,51.74c1.14-8.84-6.26-6.39-8.7-11.45l-2,9c3,.92,5.52,1.75,8.08,2.47A12.23,12.23,0,0,0,42,51.74Z"/><path class="cls-1" d="M97.55,38c-8.88,0-15.89-8.34-15.83-18.89S88.62.13,97.46,0c8.58-.12,15.9,8.61,15.93,19C113.42,29.52,106.38,38,97.55,38Zm0-9.42c4.5,0,8-4.25,8-9.59s-3.63-9.61-8.07-9.56-7.88,4.14-7.91,9.67S92.92,28.62,97.56,28.58Z"/></g></g></svg>