<svg xmlns="http://www.w3.org/2000/svg" viewBox="0 0 183 183"><defs><style>.cls-1{fill:#290390;}</style></defs><g id="Layer_2" data-name="Layer 2"><g id="Layer_1-2" data-name="Layer 1"><g id="seller"><path class="cls-1" d="M155.55,54.9A27.45,27.45,0,1,0,128.1,27.45,27.45,27.45,0,0,0,155.55,54.9Zm0-48.8A21.35,21.35,0,1,1,134.2,27.45,21.35,21.35,0,0,1,155.55,6.1Z"/><path class="cls-1" d="M152.5,36.6a3.08,3.08,0,0,0,2.16-.89l15.25-15.25-4.32-4.32L152.5,29.24l-7-7-4.32,4.32,9.15,9.15A3.08,3.08,0,0,0,152.5,36.6Z"/><path class="cls-1" d="M180,164.7h-3V119a3.06,3.06,0,0,0-3.05-3h-36.6v-5.37c1.92-3.32,12.66-20,19.95-31.23h10.55A15.25,15.25,0,0,0,183,64.05,3.06,3.06,0,0,0,180,61h-30.5a15.22,15.22,0,0,0-15.13,14l-9.94,12.17a24.34,24.34,0,0,0-10.61-4.67l-9.09-3a3,3,0,0,0-1.93,0l-1-5.88A21.45,21.45,0,0,0,112.61,58h3.29a6.12,6.12,0,0,0,6.1-6.1V48.8a6.11,6.11,0,0,0-4.94-6l4.06-4A3.2,3.2,0,0,0,122,36.6V33.55A21.36,21.36,0,0,0,100.65,12.2H82.35A21.36,21.36,0,0,0,61,33.55V36.6a3.2,3.2,0,0,0,.88,2.17l4.06,4a6.11,6.11,0,0,0-4.94,6v3.05A6.12,6.12,0,0,0,67.1,58h3.29A21.45,21.45,0,0,0,81.22,73.6l-1,5.88a3,3,0,0,0-1.93,0l-9.08,3a24.33,24.33,0,0,0-10.62,4.67L48.68,75A15.22,15.22,0,0,0,33.55,61H3.05a3.06,3.06,0,0,0-3,3A15.25,15.25,0,0,0,15.25,79.3H25.77l20,31.38v5.22H9.15a3.06,3.06,0,0,0-3.05,3V164.7h-3a3.06,3.06,0,0,0-3,3.05V180A3.06,3.06,0,0,0,3.05,183H180A3.06,3.06,0,0,0,183,180v-12.2A3.06,3.06,0,0,0,180,164.7ZM146.4,122h6.1v6.1h-6.1Zm-6.1,0v9.15a3.06,3.06,0,0,0,3,3h12.2a3.06,3.06,0,0,0,3-3V122h12.2v42.7H128.1V122Zm9.15-54.9h26.93a9.18,9.18,0,0,1-8.63,6.1H140.82A9.18,9.18,0,0,1,149.45,67.1ZM115.9,51.85h-3.05V48.8h3.05Zm-45.75,0H67.1V48.8h3.05Zm0-15.25v1.8l-3.05-3v-1.8A15.25,15.25,0,0,1,82.35,18.3h18.3A15.25,15.25,0,0,1,115.9,33.55v1.8l-3.05,3V36.6a3.06,3.06,0,0,0-2.32-3l-24.4-6.1a3,3,0,0,0-2.1.25l-12.2,6.1A3,3,0,0,0,70.15,36.6Zm6.1,18.3V38.49l9.52-4.76,21,5.25V54.9a15.25,15.25,0,1,1-30.5,0ZM97.39,84.36,91.5,90.25l-5.89-5.89,1.44-8.6a20.55,20.55,0,0,0,8.9,0ZM78.48,85.83,89.33,96.72a3.1,3.1,0,0,0,4.34,0l10.85-10.89L108,87,96,103.7H87L75,87ZM97.05,122l3.39,20.31-8.94,8.94-8.94-8.94L86,122ZM87,115.9l1-6.1h7l1,6.1ZM15.25,73.2a9.18,9.18,0,0,1-8.63-6.1H33.55a9.18,9.18,0,0,1,8.63,6.1ZM33,79.3H44.32l26.53,32.42,4.7-3.84-13.09-16a19.84,19.84,0,0,1,6.38-3.08L82.2,107.48l-5.92,35.38a3.11,3.11,0,0,0,.85,2.66l12.2,12.2a3.1,3.1,0,0,0,4.34,0l12.2-12.2a3.11,3.11,0,0,0,.85-2.66l-5.92-35.38,13.36-18.69a19.84,19.84,0,0,1,6.38,3.08l-13.09,16,4.7,3.84L138.68,79.3h11.26c-18.79,28.94-18.79,29.4-18.79,30.5v6.1h-6.1a3.06,3.06,0,0,0-3,3V164.7H61V119a3.06,3.06,0,0,0-3-3h-6.1v-6.1a2.85,2.85,0,0,0-.49-1.65ZM30.5,122h6.1v6.1H30.5Zm-18.3,0H24.4v9.15a3.06,3.06,0,0,0,3.05,3h12.2a3.06,3.06,0,0,0,3.05-3V122H54.9v42.7H12.2Zm164.7,54.9H6.1v-6.1H176.9Z"/><path class="cls-1" d="M9.15,54.9h36.6a9.15,9.15,0,0,0,9.15-9.15V9.15A9.15,9.15,0,0,0,45.75,0H9.15A9.15,9.15,0,0,0,0,9.15v36.6A9.15,9.15,0,0,0,9.15,54.9ZM6.1,9.15A3.06,3.06,0,0,1,9.15,6.1h36.6a3.06,3.06,0,0,1,3,3.05v36.6a3.06,3.06,0,0,1-3,3H9.15a3.06,3.06,0,0,1-3.05-3Z"/><rect class="cls-1" x="12.2" y="12.2" width="6.1" height="6.1"/><rect class="cls-1" x="24.4" y="12.2" width="18.3" height="6.1"/><rect class="cls-1" x="12.2" y="24.4" width="30.5" height="6.1"/><rect class="cls-1" x="12.2" y="36.6" width="30.5" height="6.1"/></g></g></g></svg>